<?xml version="1.0" encoding="utf-8"?>
<!-- Generator: Adobe Illustrator 24.2.1, SVG Export Plug-In . SVG Version: 6.00 Build 0)  -->
<svg version="1.1" id="图层_1" xmlns="http://www.w3.org/2000/svg" xmlns:xlink="http://www.w3.org/1999/xlink" x="0px" y="0px"
	 viewBox="0 0 220 162" style="enable-background:new 0 0 220 162;" xml:space="preserve">
<style type="text/css">
	.st0{fill:#F5F7FF;}
	.st1{fill-rule:evenodd;clip-rule:evenodd;fill:url(#路径_32_);}
	.st2{fill:#FFFFFF;}
	.st3{fill-rule:evenodd;clip-rule:evenodd;fill:url(#路径_34_);}
	.st4{fill-rule:evenodd;clip-rule:evenodd;fill:url(#路径_35_);}
	.st5{fill-rule:evenodd;clip-rule:evenodd;fill:url(#路径_36_);}
	.st6{fill-rule:evenodd;clip-rule:evenodd;fill:url(#路径_37_);}
	.st7{fill-rule:evenodd;clip-rule:evenodd;fill:#FFFFFF;}
	.st8{fill-rule:evenodd;clip-rule:evenodd;fill:url(#路径_38_);}
	.st9{fill:#68E1FD;}
	.st10{fill-rule:evenodd;clip-rule:evenodd;fill:url(#路径_39_);}
	.st11{fill-rule:evenodd;clip-rule:evenodd;fill:url(#路径_40_);}
	.st12{fill-rule:evenodd;clip-rule:evenodd;fill:url(#路径_41_);}
	.st13{fill-rule:evenodd;clip-rule:evenodd;fill:url(#路径_42_);}
	.st14{fill:#83A6FF;}
	.st15{fill:#FDB9A9;}
	.st16{fill-rule:evenodd;clip-rule:evenodd;fill:url(#路径_43_);}
	.st17{fill-rule:evenodd;clip-rule:evenodd;fill:url(#路径_44_);}
	.st18{fill-rule:evenodd;clip-rule:evenodd;fill:url(#路径_45_);}
	.st19{fill-rule:evenodd;clip-rule:evenodd;fill:url(#路径_46_);}
	.st20{fill-opacity:0.1;}
	.st21{opacity:0.38;fill:#FFFFFF;enable-background:new    ;}
	.st22{fill-rule:evenodd;clip-rule:evenodd;fill:url(#路径_47_);}
	.st23{fill-rule:evenodd;clip-rule:evenodd;fill:url(#Fill-1_1_);}
	.st24{fill-rule:evenodd;clip-rule:evenodd;fill:url(#Fill-3_1_);}
	.st25{fill-rule:evenodd;clip-rule:evenodd;fill:url(#Fill-5_1_);}
	.st26{fill-rule:evenodd;clip-rule:evenodd;fill:url(#Fill-7_1_);}
	.st27{fill-rule:evenodd;clip-rule:evenodd;fill:#6085FF;}
	.st28{fill-rule:evenodd;clip-rule:evenodd;fill:url(#Fill-2_1_);}
	.st29{fill-rule:evenodd;clip-rule:evenodd;fill:url(#Fill-4_1_);}
</style>
<path id="路径" class="st0" d="M38.1,151.9c3,0.8,5.9,1.4,9,1.8c16.9,2.6,34.2,1.1,51.2,3.1c18,2.1,35.5,8,53.6,3.7
	c14.5-3.5,27.5-12.3,36.9-23.3c13.3-15.4,20.5-34.8,26-54.1c6.2-21.6,9.5-47.6-6.4-63.9C195.8,6,175.1,4,156.6,4.7
	c-9.8,0.4-19.7,1.3-29.5,1s-17.4-3.4-26.5-5.1C86.1-2.3,67.7,7,57.7,16.3c-12,11-18.7,26.4-29.8,38.2c-7.5,7.9-17,14.4-22,23.9
	c-2.5,5.1-4.1,10.5-4.7,16.1c-1.8,11.6-1.9,24.1,3.7,34.5C11.3,141,24.3,148.2,38.1,151.9z"/>
<g id="编组-3" transform="translate(100.000000, 88.500000) scale(-1, 1) translate(-100.000000, -88.500000) translate(12.000000, 26.000000)">
	
		<linearGradient id="路径_32_" gradientUnits="userSpaceOnUse" x1="613.1046" y1="280.6536" x2="612.5007" y2="280.9992" gradientTransform="matrix(-144.7262 0 0 -85.0777 88881.9453 23943.0137)">
		<stop  offset="0" style="stop-color:#E8EDFF"/>
		<stop  offset="1" style="stop-color:#C7D4FF"/>
	</linearGradient>
	<path id="路径_1_" class="st1" d="M31.7,80.8l25.5-65.2c0.9-2.2,3-3.6,5.5-3.6h107.5c3.2,0,5.8,2.5,5.8,5.6
		c0,0.6-0.1,1.1-0.3,1.7l-24.7,74c-0.8,2.5-3.3,4.1-6,3.8L36.6,88.3c-3.2-0.3-5.6-2.9-5.3-6C31.3,81.8,31.5,81.3,31.7,80.8z"/>
	<path id="路径_2_" class="st2" d="M140.1,81.8c-0.8,2.5-3.3,4-6,3.8L101.6,83l-75.9-6.2c-1.5-0.1-3-0.8-4-1.9
		c-1-1.1-1.5-2.6-1.4-4.1c0.1-0.5,0.2-1,0.4-1.5l6.1-15.3l11-28.1l9.6-23.6c0.3-0.7,1-1.2,1.8-1.2l114.9-1c1.1,0,2,0.9,2,2
		c0,0.2,0,0.4-0.1,0.6L140.1,81.8L140.1,81.8z"/>
	
		<linearGradient id="路径_34_" gradientUnits="userSpaceOnUse" x1="620.3199" y1="275.6029" x2="618.9843" y2="275.8369" gradientTransform="matrix(-40.9467 0 0 -21.4044 25499.7246 5962.7734)">
		<stop  offset="1.283872e-03" style="stop-color:#E8EDFF"/>
		<stop  offset="1" style="stop-color:#C7D4FF"/>
	</linearGradient>
	<polygon id="路径_3_" class="st3" points="58.3,72.2 66.2,51.3 99.3,51.3 90.6,72.7 	"/>
	
		<linearGradient id="路径_35_" gradientUnits="userSpaceOnUse" x1="616.819" y1="281.1385" x2="615.9812" y2="279.9637" gradientTransform="matrix(-63.3733 0 0 -79.6213 39245.6992 22392.834)">
		<stop  offset="0" style="stop-color:#D3DDFD"/>
		<stop  offset="1" style="stop-color:#6085FF"/>
	</linearGradient>
	<path id="路径_4_" class="st4" d="M140.1,81.8c-0.8,2.5-3.3,4-6,3.8L101.6,83L131,6h34L140.1,81.8z"/>
	
		<linearGradient id="路径_36_" gradientUnits="userSpaceOnUse" x1="623.16" y1="277.2751" x2="621.8244" y2="278.0153" gradientTransform="matrix(-31.985 0 0 -29.7358 19993.707 8280.4902)">
		<stop  offset="1.283872e-03" style="stop-color:#E8EDFF"/>
		<stop  offset="1" style="stop-color:#C7D4FF"/>
	</linearGradient>
	<path id="路径_5_" class="st5" d="M59.7,13.6l-8.2,25.9c-0.2,0.9-1.1,1.5-2,1.4l-21.7-0.6l11-28.1l19.1-1.1
		c0.6,0,1.2,0.2,1.6,0.7C59.8,12.4,59.9,13.1,59.7,13.6z"/>
	<path id="路径_6_" class="st2" d="M10,33.2l8.5-22.9c0.3-0.8,1-1.3,1.8-1.3l35.6-2c0.6,0,1.2,0.3,1.6,0.7
		c0.4,0.5,0.5,1.1,0.3,1.6l-8.2,25.9c-0.3,0.9-1.1,1.5-2,1.5l-35.9-1c-0.6,0-1.2-0.3-1.5-0.8C9.8,34.3,9.8,33.7,10,33.2z"/>
	
		<linearGradient id="路径_37_" gradientUnits="userSpaceOnUse" x1="613.5237" y1="258.0717" x2="612.5292" y2="258.0717" gradientTransform="matrix(-120.2336 0 0 -5.9767 73931.7109 1545.4249)">
		<stop  offset="0" style="stop-color:#4D73F0"/>
		<stop  offset="1" style="stop-color:#C7D4FF"/>
	</linearGradient>
	<path id="路径_7_" class="st6" d="M165.3,5L46,6l1.5-3.8c0.3-0.8,1-1.3,1.8-1.3l114.9-1c1.1,0,2,0.9,2,2c0,0.2,0,0.4-0.1,0.6
		L165.3,5L165.3,5z"/>
	<circle id="椭圆形" class="st7" cx="162" cy="2.5" r="1"/>
	<circle id="椭圆形备份-3" class="st7" cx="159" cy="2.5" r="1"/>
	<circle id="椭圆形备份-4" class="st7" cx="156" cy="2.5" r="1"/>
	
		<linearGradient id="路径_38_" gradientUnits="userSpaceOnUse" x1="671.3925" y1="258.3856" x2="671.3925" y2="257.3856" gradientTransform="matrix(-6.9467 0 0 -5.9315 4684.5117 1557.4583)">
		<stop  offset="0" style="stop-color:#99BBFF"/>
		<stop  offset="1" style="stop-color:#6085FF"/>
	</linearGradient>
	<polygon id="路径_8_" class="st8" points="21.7,30.8 17.1,30.8 19.5,24.8 24,24.8 	"/>
	<polygon id="路径_9_" class="st9" points="27.3,30.8 22.7,30.8 27.6,18.7 32.2,18.7 	"/>
	
		<linearGradient id="路径_39_" gradientUnits="userSpaceOnUse" x1="666.75" y1="263.129" x2="666.75" y2="262.129" gradientTransform="matrix(-7.52 0 0 -7.3474 5046.0591 1956.7435)">
		<stop  offset="0" style="stop-color:#99BBFF"/>
		<stop  offset="1" style="stop-color:#6085FF"/>
	</linearGradient>
	<polygon id="路径_10_" class="st10" points="32.9,30.8 28.3,30.8 31.3,23.4 35.9,23.4 	"/>
	<polygon id="路径_11_" class="st9" points="38.5,30.8 34,30.8 40.4,14.9 44.9,14.9 	"/>
	
		<linearGradient id="路径_40_" gradientUnits="userSpaceOnUse" x1="655.1201" y1="270.8048" x2="654.6517" y2="269.8048" gradientTransform="matrix(-9.44 0 0 -12.0671 6213.5532 3287.6951)">
		<stop  offset="0" style="stop-color:#D3DDFD"/>
		<stop  offset="1" style="stop-color:#6085FF"/>
	</linearGradient>
	<polygon id="路径_12_" class="st11" points="27.3,30.8 22.7,30.8 27.6,18.7 32.2,18.7 	"/>
	
		<linearGradient id="路径_41_" gradientUnits="userSpaceOnUse" x1="649.0012" y1="273.8141" x2="649.0012" y2="272.8141" gradientTransform="matrix(-10.9867 0 0 -15.8939 7169.8057 4366.8442)">
		<stop  offset="0" style="stop-color:#99BBFF"/>
		<stop  offset="1" style="stop-color:#6085FF"/>
	</linearGradient>
	<polygon id="路径_13_" class="st12" points="38.5,30.8 34,30.8 40.4,14.9 44.9,14.9 	"/>
	
		<linearGradient id="路径_42_" gradientUnits="userSpaceOnUse" x1="643.6158" y1="275.8195" x2="643.6158" y2="274.8195" gradientTransform="matrix(-12.7733 0 0 -20.3329 8267.084 5618.6577)">
		<stop  offset="0" style="stop-color:#99BBFF"/>
		<stop  offset="1" style="stop-color:#6085FF"/>
	</linearGradient>
	<polygon id="路径_14_" class="st13" points="44.1,30.8 39.6,30.8 47.8,10.4 52.4,10.4 	"/>
	<path id="路径_15_" class="st2" d="M149.4,23.7c1.1-3.9-1.3-8-5.4-9.1c-4.1-1.1-8.4,1.1-9.6,5c-1.3,3.9,1,8,5,9.3
		s8.4-0.8,9.8-4.7l0.1-0.2L149.4,23.7z"/>
	<path id="路径_16_" class="st2" d="M132.4,71.1c0.8-3.8-1.6-7.6-5.5-8.7s-8.1,0.9-9.5,4.6c0,0.1,0,0.2,0,0.2c0,0.1,0,0.2-0.1,0.2
		c-1.1,3.8,1,7.7,4.9,9c3.8,1.3,8.1-0.4,9.8-3.9c0.1-0.2,0.1-0.5,0.2-0.7C132.2,71.6,132.3,71.3,132.4,71.1z"/>
	<path id="路径_17_" class="st2" d="M140.3,44.9c0-4.1-3.5-7.5-7.8-7.5c-4.3,0-7.8,3.4-7.8,7.5v0.5c0,4.1,3.5,7.5,7.8,7.5
		c4.3,0,7.8-3.4,7.8-7.5V44.9L140.3,44.9z"/>
	<path id="路径_18_" class="st14" d="M141.6,21.7L141.6,21.7l1.8-5.7c-0.5-0.2-1.1-0.2-1.6-0.3c-2.8-0.1-5.3,1.6-6.1,4.1
		c-0.2,0.5-0.3,1-0.3,1.5c0,0.5,0,1,0.1,1.5c0.2,1,0.8,1.9,1.5,2.7c1.5,1.6,3.7,2.2,5.9,1.8c0.5-0.1,1-0.3,1.5-0.5
		c0.5-0.2,0.9-0.5,1.3-0.9c0.8-0.7,1.4-1.6,1.7-2.6L141.6,21.7z"/>
	<path id="路径_19_" class="st14" d="M132.6,45.1L132.6,45.1v-5.9c-1.1,0-2.1,0.3-3.1,0.8c-0.5,0.3-0.9,0.6-1.3,0.9
		c-1.6,1.5-2.2,3.7-1.6,5.7c0.6,2,2.3,3.6,4.4,4.2c1,0.3,2.2,0.3,3.2,0c0.5-0.1,1-0.3,1.5-0.6L132.6,45.1z"/>
	<path id="路径_20_" class="st14" d="M124.7,69.5l1.9-5.6c-1-0.3-2.1-0.4-3.2-0.2c-2.7,0.6-4.7,2.8-4.9,5.5c0,0.5,0,1,0.1,1.5
		c0.1,0.5,0.3,1,0.5,1.5c0.7,1.4,2,2.5,3.5,2.9L124.7,69.5L124.7,69.5z"/>
	<path id="路径_21_" class="st15" d="M46.2,47c-0.1,0.2-0.2,0.5-0.4,0.6c-0.3,0.2-0.6,0.2-0.9,0.2c-0.4,0-0.7,0.1-1,0.3
		c-0.1,0.2-0.1,0.3,0,0.5l0.4,2.1c0.1,0.2,0.1,0.3,0,0.5c-0.1,0.2-0.3,0.3-0.5,0.3c-0.8,0.3-1.7,0.5-2.3,0c-0.3-0.3-0.5-0.7-0.6-1.1
		c-0.8-2.3-1.2-4.7-1.2-7.2c0-1.5,0.6-2.9,1.8-3.9c1.1-0.7,2.5-1,3.8-0.8c0.6,0.1,1.1,0.4,1.4,0.9c0.2,0.4,0,0.7,0,1.1
		c0,0.6,0,1.2,0.1,1.7c0.1,0.3,0.1,0.5,0.2,0.8c0.1,0.2,0.2,0.5,0.2,0.7c0,0.4-0.2,0.9-0.4,1.3c-0.2,0.5-0.4,0.9-0.5,1.4
		C46.3,46.6,46.3,46.8,46.2,47L46.2,47z"/>
	<path id="路径_22_" class="st15" d="M48,62.3c0,0,2.7,2.7,4.9,2.7c2.2,0,12.1-8.9,12.1-8.9c1.1-0.5,1.9-1.4,2.3-2.4
		c0.1-0.4,0.1-0.8,0.1-1.1c0.2-0.7,0.5-1.4,1-2c0.2-0.2,0.3-0.4,0.2-0.6c-0.1-0.3-0.4-0.4-0.7-0.4c-0.9-0.3-1.9-0.2-2.8,0.2
		c-0.6,0.5-1,1.1-1.2,1.9c-0.3-0.4-0.6-0.6-1.1-0.8c-0.3,0.1-0.4,0.5-0.3,0.7c0.1,0.3,0.2,0.5,0.3,0.8c0.2,1-0.3,2-1.1,2.6
		c-0.5,0.4-1.1,0.7-1.6,1l-6.1,3.4c-0.6,0.3-1.3,0.7-2,0.4c-0.3-0.2-0.5-0.4-0.9-0.6c-0.5-0.1-1.1,0.1-1.4,0.4
		C49,60.2,48.4,61.2,48,62.3L48,62.3z"/>
	<path id="路径_23_" class="st15" d="M23.8,100.1c-0.2,1.6-1.1,3-2.5,3.8c-2.5,1.1-5.7,1.4-8.3,1.9c-1.6,0.3-3.2,0.7-4.8,1.1
		c-1.3,0.3-2.8,0.3-3.7,1.4C4,109,3.7,110,2.8,110.1c-0.6,0.1-1.2-0.2-1.6-0.7c-0.3-0.5-0.5-1.1-0.5-1.7c0-0.2,0-0.5,0-0.7
		c0.1-0.2,0.2-0.5,0.4-0.6c0.9-0.8,2-1.4,3.2-1.6c1-0.3,2-0.8,3-1.3c0.8-0.4,1.6-0.7,2.5-0.9l4.9-1.7c1.1-0.4,2.9-0.5,3.3-1.8
		c0.2-0.6,0.3-1.2,0.3-1.9c0.1-1.3,0.5-2.5,1.2-3.5c0.1-0.2,0.2-0.3,0.4-0.4c0.2-0.1,0.4-0.2,0.7-0.2c0.6-0.1,1.3,0,1.8,0.2
		c0.8,0.4,1.4,1,1.6,1.8c0.3,0.8,0.4,1.6,0.3,2.4C24.1,98.3,24,99.2,23.8,100.1L23.8,100.1z"/>
	
		<linearGradient id="路径_43_" gradientUnits="userSpaceOnUse" x1="743.2516" y1="264.64" x2="744.2516" y2="264.64" gradientTransform="matrix(-3.1984 0 0 -8.1747 2377.2512 2273.1001)">
		<stop  offset="0" style="stop-color:#0048AC"/>
		<stop  offset="1" style="stop-color:#6085FF"/>
	</linearGradient>
	<path id="路径_24_" class="st16" d="M1.9,105.9c-0.1,0.3-0.3,0.6-0.4,0.9c-0.1,0.3-0.1,0.5,0,0.8l0.3,1.3c0,0.3,0.1,0.5,0.4,0.7
		s0.5,0.2,0.8,0.2c0.1,0,0.2,0.1,0.3,0.2c0,0.1,0,0.1,0,0.2l-0.4,1.6c-0.2,0.7-0.4,1.3-0.7,2c-0.1,0-0.2,0-0.3,0
		c-0.9,0-1.2-2.1-1.5-2.8c-0.3-0.8-0.3-1.6-0.2-2.4c0-0.4,0.1-0.9,0.1-1.3c0-0.4,0.1-0.9,0.3-1.3c0.1-0.2,0.3-0.3,0.6-0.3
		C1.3,105.7,2,105.6,1.9,105.9z"/>
	<path id="路径_25_" class="st15" d="M38.1,100.3c0.9,1.3,1.2,3,0.7,4.5c-1.1,2.4-3.4,4.6-5,6.6c-1,1.3-2,2.6-2.9,3.8
		c-0.8,1.1-1.9,1.9-1.8,3.4c0,0.8,0.4,1.8-0.1,2.5c-0.4,0.5-1.1,0.6-1.7,0.5c-0.6-0.2-1.1-0.5-1.5-1c-0.2-0.2-0.3-0.3-0.4-0.5
		c-0.1-0.2-0.2-0.5-0.1-0.7c0.1-1.2,0.6-2.3,1.3-3.3c0.5-0.9,1-1.9,1.3-2.9c0.3-0.8,0.8-1.5,1.3-2.2l2.5-4.3c0.6-1,1.8-2.2,1.3-3.4
		c-0.3-0.6-0.7-1.1-1.1-1.6c-0.8-1-1.3-2.2-1.5-3.4c0-0.2,0-0.4,0-0.6c0.1-0.2,0.2-0.4,0.4-0.5c0.4-0.4,1-0.8,1.6-1
		c0.8-0.2,1.7-0.1,2.4,0.3c0.7,0.4,1.4,1,1.9,1.6C37.1,98.8,37.6,99.5,38.1,100.3L38.1,100.3z"/>
	
		<linearGradient id="路径_44_" gradientUnits="userSpaceOnUse" x1="675.5837" y1="259.4082" x2="676.5837" y2="259.4082" gradientTransform="matrix(-6.5496 0 0 -6.3226 4449.1406 1761.5577)">
		<stop  offset="0" style="stop-color:#0048AC"/>
		<stop  offset="1" style="stop-color:#6085FF"/>
	</linearGradient>
	<path id="路径_26_" class="st17" d="M25.4,118.4c0.2,0.3,0.1,0.7,0.3,1c0.1,0.2,0.3,0.4,0.6,0.6l1,0.8c0.1,0.1,0.3,0.2,0.4,0.2
		c0.4,0.1,0.8,0,1.1-0.3c0.1-0.1,0.2-0.1,0.2-0.1c0.1,0,0.2,0.1,0.2,0.2l0.8,1.5c0.3,0.6,0.6,1.3,0.8,1.9c0,0.1-0.1,0.2-0.2,0.2
		c-0.7,0.5-2.3-0.8-3.1-1.3c-0.7-0.4-1.4-1-1.9-1.6c-0.3-0.4-0.5-0.7-0.8-1.1c-0.3-0.3-0.5-0.7-0.6-1.1c-0.1-0.2,0-0.5,0.2-0.6
		C24.7,118.6,25.2,118,25.4,118.4z"/>
	
		<linearGradient id="路径_45_" gradientUnits="userSpaceOnUse" x1="621.6196" y1="280.3116" x2="622.2735" y2="279.4552" gradientTransform="matrix(-39.201 0 0 -56.0273 24386.9199 15759.3408)">
		<stop  offset="0" style="stop-color:#4D73F0"/>
		<stop  offset="1" style="stop-color:#C7D4FF"/>
	</linearGradient>
	<path id="路径_27_" class="st18" d="M51.3,59c-0.1,0.2-0.2,0.3-0.3,0.4c-1,0.9-2,1.8-3,2.8c-0.3,0.3-0.7,0.6-1,0.8
		c-0.3,0.2-0.7,0.3-1,0.5c-0.1,0.1-0.2,0.1-0.3,0.2c-0.7,0.6-1.3,1.4-1.6,2.2c-0.3,0.5-0.5,1.1-0.7,1.6c-0.5,1.4-0.9,2.9-1.2,4.4
		c-1.5,8.5,0.5,17.2,1.5,25.8c0.1,0.9,0.2,1.9,0.3,2.8c0,0.4,0.1,0.8,0.1,1.2c0.1,0.4,0,0.7-0.2,1.1c-0.2,0.2-0.5,0.4-0.8,0.5
		c-4.5,1.7-9.6,3.1-14.2,1.6c-3-1-5.3-3.1-7.9-4.8s-5.8-3-8.8-2.2c0-2.1,0.8-4.1,2.3-5.7c0.5-0.6,1-1.2,1.6-1.7l1.2-1.1
		c4-3.7,7.4-7,9.6-12.2c0.9-2.1,1-4.6,2.5-6.5c1.3-1.6,2.4-1.8,2.7-3.9c0.4-2.7,1-5.3,1.9-7.9c0.8-2.3,2.1-4.5,3.7-6.4
		c0.7-0.9,1.6-1.6,2.6-2.2c1-0.6,2.2-0.8,3.3-0.7c1.2,0.2,2.1,0.9,2.5,2c1,2.9,3.7,4.2,5.1,6.9C51.3,58.7,51.3,58.9,51.3,59z"/>
	
		<linearGradient id="路径_46_" gradientUnits="userSpaceOnUse" x1="624.887" y1="277.9239" x2="625.887" y2="277.9239" gradientTransform="matrix(-30.4601 0 0 -31.9045 19051.168 8916.8604)">
		<stop  offset="0" style="stop-color:#0048AC"/>
		<stop  offset="1" style="stop-color:#6085FF"/>
	</linearGradient>
	<path id="路径_28_" class="st19" d="M47.4,38.3c-0.2,0.9-0.9,1.7-1.8,2c-2.1,0.8-4.9,0.5-4.3,3.3c0.6,2.1,0.4,4.3-0.5,6.2
		c-0.6,0.7-1,1.6-1.2,2.4c0,0.4,0.1,0.8,0.2,1.2c0.6,3.4-1.8,6.7-5.3,7.3c-0.3,0-0.5,0.1-0.8,0.1c-0.8-0.1-1.6,0.1-2.3,0.4
		c-0.6,0.5-1.1,1.2-1.3,2c-0.3,0.8-0.8,1.6-1.5,2.1c-1.4,0.9-3.3,0.4-4.9-0.3c-1.2-0.4-2.3-1-3.4-1.7c-1-0.8-1.7-1.9-1.8-3.1
		c0.1-0.8,0.1-1.6,0-2.4c-0.3-0.4-0.6-0.9-0.9-1.3c-0.6-1.4-0.5-3,0.4-4.3c0.1-0.2,0.2-0.5,0.3-0.7c0-0.3-0.1-0.5-0.2-0.7
		c-0.3-1.7,0.6-3.5,2.3-4.3c1.6-0.7,3.4-1.2,5.1-1.5c2.7-0.6,4.8-2.5,5.9-4.9c1-2.1,1.9-4.4,4.2-5.4c3.6-1.3,7.7-0.9,10.9,1.2
		C47.3,36.4,47.7,37.4,47.4,38.3L47.4,38.3z"/>
	<path id="路径_29_" class="st20" d="M46.9,63.1c-0.3,0.2-0.7,0.3-1,0.5c-0.1,0.1-0.2,0.1-0.3,0.2c-1.2,1-2,2.4-2.3,3.8
		c-0.5,1.4-0.9,2.9-1.2,4.4c-0.6,3.9-0.7,7.8-0.4,11.7c0.2,1.4,0.1,2.9-0.1,4.3c-1.8-2-2.9-4.4-3.2-7c-0.2-1.4-0.1-2.9-0.4-4.3
		c-0.2-1-0.7-2-0.8-3c0-0.1,0-0.1,0-0.2c-0.3-1.8,0.5-2.1,1.5-3.2c1.1-1.1,1.8-2.4,2.3-3.8c0.9-2.6,1.8-5.1,2.8-7.5
		C43.5,59.7,46.1,61.8,46.9,63.1z"/>
	<path id="路径_30_" class="st21" d="M43.9,100.7c-4.6,1.3-9.6,1.2-14.1-0.3c-1.7-0.6-3.3-1.4-4.7-2.6c-0.5-0.5-1-1-1.5-1.4
		c-0.8-0.6-1.7-1.2-2.7-1.6c-2.1-0.9-4.2-1.5-6.3-2.4l-0.2-0.1c0.5-0.6,1-1.2,1.6-1.7l1.2-1.1h0.3c1.3,0.2,2.6,0.5,3.9,1
		c2,1.1,3.8,2.3,5.6,3.8c1.7,1.1,3.6,2.1,5.5,2.9c1.2,0.6,2.5,1,3.8,1.3c1.3,0.2,2.7,0.2,4,0.1c1.1,0,2.3-0.2,3.3-0.8
		C43.7,98.8,43.8,99.7,43.9,100.7z"/>
	
		<linearGradient id="路径_47_" gradientUnits="userSpaceOnUse" x1="620.3166" y1="275.6027" x2="618.981" y2="275.8365" gradientTransform="matrix(-40.96 0 0 -21.4044 25517.3105 5935.7568)">
		<stop  offset="1.283872e-03" style="stop-color:#E8EDFF"/>
		<stop  offset="1" style="stop-color:#C7D4FF"/>
	</linearGradient>
	<polygon id="路径_31_" class="st22" points="67.8,45.2 75.7,24.3 108.7,24.3 100.1,45.7 	"/>
</g>
<g id="编组" transform="translate(110.000000, 114.000000)">
	
		<linearGradient id="Fill-1_1_" gradientUnits="userSpaceOnUse" x1="-486.3419" y1="177.1793" x2="-488.311" y2="177.2732" gradientTransform="matrix(9.2632 0 0 -8.4375 4520.1582 1517.875)">
		<stop  offset="0" style="stop-color:#4D73F0"/>
		<stop  offset="1" style="stop-color:#C7D4FF"/>
	</linearGradient>
	<polygon id="Fill-1" class="st23" points="5.9,21.1 8.9,27 15.2,25.2 14.7,18.6 	"/>
	
		<linearGradient id="Fill-3_1_" gradientUnits="userSpaceOnUse" x1="-493.4622" y1="183.9187" x2="-494.2402" y2="184.7751" gradientTransform="matrix(10.9474 0 0 -14.3438 5411.9473 2656.9375)">
		<stop  offset="1.283872e-03" style="stop-color:#E8EDFF"/>
		<stop  offset="1" style="stop-color:#C7D4FF"/>
	</linearGradient>
	<path id="Fill-3" class="st24" d="M0,6.3v0.1c0,0.3,0.1,0.7,0.2,1l0,0c0.5,2.3,1.4,4.5,2.7,6.5l0,0c2,2.8,5.1,4.6,8.1,6.4l0,0
		c-0.3-0.2-0.2-1.8-0.3-2.2l0,0L10.5,16c-0.2-1.1-0.6-2.2-1.3-3.1l0,0c-1.3-2.1-3.1-4-5.3-5.3l0,0C2.7,6.9,1.4,6.3,0,5.9l0,0
		C0,6.1,0,6.2,0,6.3"/>
	
		<linearGradient id="Fill-5_1_" gradientUnits="userSpaceOnUse" x1="-460.7571" y1="187.3508" x2="-460.924" y2="187.464" gradientTransform="matrix(5.8947 0 0 -20.25 2725.6313 3802.75)">
		<stop  offset="0" style="stop-color:#4D73F0"/>
		<stop  offset="1" style="stop-color:#C7D4FF"/>
	</linearGradient>
	<path id="Fill-5" class="st25" d="M9.8,0L7.5,7.8c-0.5,1.5-0.8,3-0.8,4.6l0,0c0.2,3.1,1.8,6,4.3,7.9l0,0c0.7-1.1,0.6-3.1,0.7-4.4
		l0,0l0.6-5.3c0.3-1.9,0.4-3.8,0.2-5.6l0,0C12.3,2.9,11.3,1.2,9.8,0z"/>
	
		<linearGradient id="Fill-7_1_" gradientUnits="userSpaceOnUse" x1="-497.1203" y1="165.5905" x2="-496.1203" y2="165.7305" gradientTransform="matrix(11.7895 0 0 -5.0625 5865.0005 858.0629)">
		<stop  offset="0" style="stop-color:#6085FF"/>
		<stop  offset="1" style="stop-color:#6085FF"/>
	</linearGradient>
	<path id="Fill-7" class="st26" d="M14.3,16.9c0.7-0.2,1.4,0.2,1.6,0.8c0.2,0.6-0.2,1.2-0.9,1.4l-9.2,2.8c-0.7,0.2-1.4-0.2-1.6-0.8
		c-0.2-0.6,0.2-1.2,0.9-1.4L14.3,16.9z"/>
</g>
<g id="编组_1_" transform="translate(151.000000, 12.000000)">
	<path id="形状结合" class="st27" d="M7.6,5.6h0.6c0.3,0,0.6,0.3,0.6,0.7c0,0.4,0.1,0.8,0.3,1.1C9.3,7.9,9.8,8.1,10.3,8
		c0.3-0.1,0.6-0.2,0.8-0.3C11.4,7.5,11.8,7.6,12,8c0.1,0.2,0.3,0.3,0.4,0.5c0.2,0.3,0.1,0.6-0.1,0.8c-0.2,0.2-0.4,0.5-0.5,0.8
		c-0.3,0.6,0,1.4,0.6,1.6c0.2,0.1,0.4,0.2,0.7,0.3c0.3,0.1,0.5,0.4,0.5,0.7c0,0.2,0,0.5-0.1,0.7c0,0.3-0.3,0.6-0.6,0.6
		c-0.3,0-0.7,0.1-1,0.3c-0.5,0.2-0.7,0.8-0.7,1.3c0,0.3,0.1,0.6,0.3,0.9c0.2,0.3,0.1,0.7-0.2,0.9c0,0,0,0,0,0l-0.4,0.3
		c-0.2,0.3-0.6,0.3-0.9,0c-0.2-0.2-0.5-0.4-0.8-0.5c-0.5-0.2-1.1,0-1.4,0.5c-0.2,0.3-0.3,0.6-0.4,0.9c-0.1,0.3-0.4,0.5-0.7,0.5
		L5.9,19c-0.3-0.1-0.5-0.3-0.5-0.6c0-0.4-0.1-0.7-0.2-1.1c-0.2-0.6-0.9-0.9-1.4-0.7c-0.3,0.1-0.5,0.2-0.8,0.3
		c-0.3,0.1-0.6,0.1-0.8-0.2c-0.1-0.2-0.3-0.4-0.4-0.6c-0.1-0.1-0.1-0.2-0.1-0.4l0.2,0c0-0.2,0.1-0.3,0.2-0.5c0.3-0.3,0.5-0.6,0.6-1
		c0.1-0.5-0.1-1-0.5-1.3c-0.2-0.2-0.5-0.3-0.8-0.4c-0.3-0.1-0.5-0.4-0.5-0.7v-0.6c0-0.4,0.3-0.6,0.6-0.7l0.1,0
		c0.3,0,0.6-0.1,0.8-0.2C2.9,10.2,3.2,9.5,3,8.9C2.9,8.6,2.8,8.4,2.7,8.1C2.6,7.8,2.7,7.4,2.9,7.3C3.1,7.1,3.2,7,3.4,6.9
		c0.3-0.2,0.6-0.2,0.9,0C4.5,7.1,4.7,7.3,5,7.4C5.5,7.7,6.1,7.5,6.4,7c0.2-0.3,0.3-0.6,0.4-0.9C7,5.8,7.3,5.6,7.6,5.6z M7.2,10.1
		C7.2,10.1,7.2,10.1,7.2,10.1L7.2,10.1c-1.2,0-2.1,1-2.1,2.2c0,1.2,0.9,2.2,2.1,2.2c1.2,0,2.1-1,2.1-2.2v0
		C9.3,11.1,8.3,10.1,7.2,10.1z M15.7,0.7C15.8,1,16,1.2,16.2,1.4c0.3,0.3,0.8,0.3,1.2,0c0.1-0.1,0.3-0.2,0.4-0.3
		c0.2-0.2,0.4-0.2,0.6-0.1l0.4,0.3c0.2,0.1,0.3,0.4,0.2,0.6C19,2,18.9,2.3,18.9,2.5c0,0.5,0.3,0.9,0.8,0.9h0.6
		c0.3,0,0.5,0.2,0.5,0.4C20.9,4,21,4.2,21,4.3c0.1,0.2-0.1,0.5-0.3,0.6c-0.2,0.1-0.5,0.3-0.6,0.4c-0.3,0.3-0.3,0.7-0.1,1.1
		c0.1,0.2,0.3,0.4,0.5,0.6c0.2,0.2,0.3,0.5,0.1,0.7L20.3,8c-0.1,0.2-0.4,0.3-0.7,0.2l0,0l0,0c-0.3-0.1-0.7-0.1-1,0
		c-0.3,0.1-0.6,0.4-0.6,0.7c0,0.2,0,0.3,0,0.5L18,9.3c0,0.1,0,0.2,0,0.3c0,0.2-0.2,0.4-0.4,0.4l-0.4,0.1c-0.2,0.1-0.5-0.1-0.6-0.3
		c-0.1-0.2-0.2-0.4-0.3-0.5c-0.3-0.4-0.9-0.5-1.3-0.2c0,0,0,0-0.1,0c-0.1,0.1-0.3,0.2-0.4,0.4c-0.2,0.2-0.4,0.2-0.6,0.1l-0.4-0.2
		c-0.3-0.1-0.4-0.4-0.2-0.7c0.1-0.2,0.1-0.4,0.1-0.6c0-0.5-0.3-0.9-0.8-1c-0.2,0-0.5,0-0.7,0c-0.2,0-0.4-0.2-0.5-0.4
		c0-0.1-0.1-0.2-0.1-0.4c-0.1-0.2,0-0.5,0.3-0.6c0.2-0.1,0.4-0.2,0.6-0.4c0.3-0.3,0.4-0.8,0.1-1.2c-0.1-0.2-0.2-0.3-0.4-0.5
		c-0.2-0.2-0.3-0.5-0.2-0.7c0,0,0,0,0-0.1L12,2.5c0.1-0.2,0.4-0.3,0.7-0.2c0.3,0.1,0.5,0.1,0.8,0.1c0.4,0,0.7-0.3,0.8-0.7
		c0.1-0.2,0.1-0.5,0.1-0.7c0-0.2,0.1-0.5,0.3-0.5l0.5-0.1C15.4,0.3,15.6,0.5,15.7,0.7z M16.1,3.6L16.1,3.6c-0.9,0-1.6,0.7-1.6,1.6v0
		c0,0.9,0.7,1.6,1.6,1.6c0.9,0,1.6-0.7,1.6-1.6C17.8,4.3,17,3.6,16.1,3.6z"/>
	
		<linearGradient id="Fill-2_1_" gradientUnits="userSpaceOnUse" x1="-540.3235" y1="286.1852" x2="-540.3235" y2="285.1852" gradientTransform="matrix(12.75 0 0 -13.5 6895.8745 3869.4995)">
		<stop  offset="0" style="stop-color:#99BBFF"/>
		<stop  offset="1" style="stop-color:#6085FF"/>
	</linearGradient>
	<path id="Fill-2" class="st28" d="M6.8,10.5c-1.2,0-2.1,1-2.1,2.2C4.7,14,5.6,15,6.8,15c1.2,0,2.1-1,2.1-2.2v0
		C8.9,11.5,8,10.5,6.8,10.5C6.8,10.5,6.8,10.5,6.8,10.5L6.8,10.5z M1.4,16.2c0-0.2,0.1-0.3,0.2-0.5c0.3-0.3,0.5-0.6,0.6-1
		c0.1-0.5-0.1-1-0.5-1.3c-0.2-0.2-0.5-0.3-0.8-0.4c-0.3-0.1-0.5-0.4-0.5-0.7v-0.6c0-0.4,0.3-0.7,0.7-0.7h0c0.3,0,0.6-0.1,0.8-0.2
		c0.6-0.2,0.9-0.9,0.7-1.5C2.6,9,2.5,8.7,2.3,8.5C2.2,8.2,2.3,7.8,2.6,7.6C2.7,7.5,2.8,7.4,3,7.3C3.2,7,3.6,7,3.9,7.3
		c0.2,0.2,0.5,0.4,0.7,0.5C5.1,8,5.7,7.9,6.1,7.4c0.2-0.3,0.3-0.6,0.4-0.9C6.6,6.1,6.9,5.9,7.2,6h0.6c0.3,0,0.6,0.3,0.6,0.7
		c0,0.4,0.1,0.8,0.3,1.1c0.3,0.5,0.8,0.7,1.3,0.6c0.3-0.1,0.6-0.2,0.8-0.3C11,7.9,11.4,8,11.6,8.3c0.1,0.2,0.3,0.3,0.4,0.5
		c0.2,0.3,0.1,0.6-0.1,0.8c-0.2,0.2-0.4,0.5-0.5,0.8c-0.3,0.6,0,1.4,0.6,1.6c0.2,0.1,0.4,0.2,0.7,0.3c0.3,0.1,0.5,0.4,0.5,0.7
		c0,0.2,0,0.5-0.1,0.7c0,0.3-0.3,0.6-0.6,0.6c-0.3,0-0.7,0.1-1,0.3c-0.5,0.2-0.7,0.8-0.7,1.3c0,0.3,0.1,0.6,0.3,0.9
		c0.2,0.3,0.1,0.7-0.2,0.9c0,0,0,0,0,0l-0.4,0.3c-0.2,0.3-0.6,0.3-0.9,0C9.3,18,9,17.8,8.7,17.7c-0.5-0.2-1.1,0-1.4,0.5
		C7.1,18.4,7,18.7,6.9,19c-0.1,0.3-0.4,0.5-0.7,0.5l-0.7-0.1C5.2,19.3,5,19.1,5,18.8c0-0.4-0.1-0.7-0.2-1.1
		c-0.2-0.6-0.9-0.9-1.4-0.7c-0.3,0.1-0.5,0.2-0.8,0.3c-0.3,0.1-0.6,0.1-0.8-0.2c-0.1-0.2-0.3-0.4-0.4-0.6c-0.1-0.1-0.1-0.2-0.1-0.4
		L1.4,16.2z"/>
	
		<linearGradient id="Fill-4_1_" gradientUnits="userSpaceOnUse" x1="-530.1154" y1="282.0256" x2="-530.1154" y2="281.0256" gradientTransform="matrix(9.75 0 0 -9.75 5184.3745 2750.5)">
		<stop  offset="0" style="stop-color:#99BBFF"/>
		<stop  offset="1" style="stop-color:#6085FF"/>
	</linearGradient>
	<path id="Fill-4" class="st29" d="M15.7,4c-0.9,0-1.6,0.7-1.6,1.6v0c0,0.9,0.7,1.6,1.6,1.6c0.9,0,1.6-0.7,1.6-1.6
		C17.4,4.7,16.7,4,15.7,4L15.7,4z M17.6,9.7c0,0.1,0,0.2,0,0.3c0,0.2-0.2,0.4-0.4,0.4l-0.4,0.1c-0.2,0.1-0.5-0.1-0.6-0.3
		C16.1,10,16,9.8,15.8,9.7c-0.3-0.4-0.9-0.5-1.3-0.2c0,0,0,0-0.1,0c-0.1,0.1-0.3,0.2-0.4,0.4c-0.2,0.2-0.4,0.2-0.6,0.1l-0.4-0.2
		c-0.3-0.1-0.4-0.4-0.2-0.7c0.1-0.2,0.1-0.4,0.1-0.6c0-0.5-0.3-0.9-0.8-1c-0.2,0-0.5,0-0.7,0C11.2,7.5,11,7.3,11,7
		c0-0.1-0.1-0.2-0.1-0.4c-0.1-0.2,0-0.5,0.3-0.6c0.2-0.1,0.4-0.2,0.6-0.4c0.3-0.3,0.4-0.8,0.1-1.2c-0.1-0.2-0.2-0.3-0.4-0.5
		c-0.2-0.2-0.3-0.5-0.2-0.7c0,0,0,0,0-0.1l0.2-0.3c0.1-0.2,0.4-0.3,0.7-0.2c0.3,0.1,0.5,0.1,0.8,0.1c0.4,0,0.7-0.3,0.8-0.7
		c0.1-0.2,0.1-0.5,0.1-0.7c0-0.2,0.1-0.5,0.3-0.5l0.5-0.1c0.2-0.1,0.5,0.1,0.6,0.3c0.1,0.3,0.3,0.5,0.5,0.7c0.3,0.3,0.8,0.3,1.2,0
		c0.1-0.1,0.3-0.2,0.4-0.3c0.2-0.2,0.4-0.2,0.6-0.1l0.4,0.3c0.2,0.1,0.3,0.4,0.2,0.6c-0.1,0.2-0.1,0.5-0.1,0.8
		c0,0.5,0.3,0.9,0.8,0.9H20c0.3,0,0.5,0.2,0.5,0.4c0,0.1,0.1,0.3,0.1,0.4c0.1,0.2-0.1,0.5-0.3,0.6c-0.2,0.1-0.5,0.3-0.6,0.4
		c-0.3,0.3-0.3,0.7-0.1,1.1C19.7,7,19.8,7.2,20,7.3c0.2,0.2,0.3,0.5,0.1,0.7l-0.2,0.3c-0.1,0.2-0.4,0.3-0.7,0.2c0,0,0,0,0,0
		c-0.3-0.1-0.7-0.1-1,0c-0.3,0.1-0.6,0.4-0.6,0.7c0,0.2,0,0.3,0,0.5L17.6,9.7z"/>
</g>
</svg>
