<?xml version="1.0" encoding="utf-8"?>
<!-- Generator: Adobe Illustrator 24.1.0, SVG Export Plug-In . SVG Version: 6.00 Build 0)  -->
<svg version="1.1" id="图层_1" xmlns="http://www.w3.org/2000/svg" xmlns:xlink="http://www.w3.org/1999/xlink" x="0px" y="0px"
     viewBox="0 0 6 100" style="enable-background:new 0 0 6 100;" xml:space="preserve">
<style type="text/css">
	.st0{fill-rule:evenodd;clip-rule:evenodd;fill:#DCDEE5;}
</style>
    <path class="st0" d="M6,97V3c0-1.7-1.3-3-3-3S0,1.3,0,3v94c0,1.7,1.3,3,3,3S6,98.7,6,97z M2,7V5h2v2H2z M2,11V9h2v2H2z M2,15v-2h2v2
	H2z M2,19v-2h2v2H2z M2,23v-2h2v2H2z M2,27v-2h2v2H2z M2,31v-2h2v2H2z M2,35v-2h2v2H2z M2,39v-2h2v2H2z M2,43v-2h2v2H2z M2,47v-2h2
	v2H2z M2,51v-2h2v2H2z M2,55v-2h2v2H2z M2,59v-2h2v2H2z M2,63v-2h2v2H2z M2,67v-2h2v2H2z M2,71v-2h2v2H2z M2,75v-2h2v2H2z M2,79v-2
	h2v2H2z M2,83v-2h2v2H2z M2,87v-2h2v2H2z M2,91v-2h2v2H2z M2,95v-2h2v2H2z"/>
</svg>
