<?xml version="1.0" encoding="utf-8"?>
<!-- Generator: Adobe Illustrator 24.2.1, SVG Export Plug-In . SVG Version: 6.00 Build 0)  -->
<svg version="1.1" id="图层_1" xmlns="http://www.w3.org/2000/svg" xmlns:xlink="http://www.w3.org/1999/xlink" x="0px" y="0px"
	 viewBox="0 0 220 162" style="enable-background:new 0 0 220 162;" xml:space="preserve">
<style type="text/css">
	.st0{fill-rule:evenodd;clip-rule:evenodd;fill:#F5F7FF;}
	.st1{fill-rule:evenodd;clip-rule:evenodd;fill:url(#路径_6_);}
	.st2{fill:#EDF1FF;}
	.st3{fill-rule:evenodd;clip-rule:evenodd;fill:url(#路径_7_);}
	.st4{fill:#FFFFFF;}
	.st5{fill-rule:evenodd;clip-rule:evenodd;fill:url(#Fill-3_1_);}
	.st6{fill-rule:evenodd;clip-rule:evenodd;fill:#FFFFFF;}
	.st7{fill-rule:evenodd;clip-rule:evenodd;fill:url(#Fill-47_1_);}
	.st8{fill-rule:evenodd;clip-rule:evenodd;fill:#FFBAA8;}
	.st9{filter:url(#Adobe_OpacityMaskFilter);}
	.st10{mask:url(#mask-6_1_);fill-rule:evenodd;clip-rule:evenodd;fill:url(#Fill-29_1_);}
	.st11{filter:url(#Adobe_OpacityMaskFilter_1_);}
	.st12{mask:url(#mask-9_1_);fill-rule:evenodd;clip-rule:evenodd;fill:url(#Fill-35_1_);}
	.st13{fill-rule:evenodd;clip-rule:evenodd;fill:#6085FF;}
	.st14{filter:url(#Adobe_OpacityMaskFilter_2_);}
	.st15{mask:url(#mask-12_1_);fill-rule:evenodd;clip-rule:evenodd;fill:url(#Fill-49_1_);}
	.st16{filter:url(#Adobe_OpacityMaskFilter_3_);}
	.st17{mask:url(#mask-15_1_);fill-rule:evenodd;clip-rule:evenodd;fill:url(#Fill-53_1_);}
	.st18{fill-rule:evenodd;clip-rule:evenodd;fill:#E0A091;}
	.st19{fill-rule:evenodd;clip-rule:evenodd;fill:url(#Clip-8_2_);}
	.st20{fill-rule:evenodd;clip-rule:evenodd;fill:url(#Clip-12_2_);}
	.st21{fill-rule:evenodd;clip-rule:evenodd;fill:url(#Clip-8_3_);}
	.st22{fill-rule:evenodd;clip-rule:evenodd;fill:url(#Clip-12_3_);}
	.st23{fill-rule:evenodd;clip-rule:evenodd;fill:url(#形状结合_3_);stroke:url(#形状结合_4_);}
	.st24{opacity:0.297;fill:none;stroke:url(#椭圆形_1_);stroke-linecap:round;stroke-linejoin:round;enable-background:new    ;}
	.st25{fill-rule:evenodd;clip-rule:evenodd;fill:url(#Fill-89_1_);}
</style>
<path id="Fill-1" class="st0" d="M100.6,1.4c6,0.9,11.8,2.7,17.3,5.2c7.6,3.6,13.9,9.2,21.1,13.6c12.2,7.4,26.8,11.6,40.7,14.5
	c5.5,1.2,11.2,2.3,16.1,4.9c7.6,4,13.1,11.3,16.9,19.1c8.3,17,9.8,37.7,2.4,55.1c-7.2,17-23.8,31.3-42.6,33.1
	c-23.7,2.4-47.4,7.1-71.1,10c-16.5,2.4-33,4.8-49.7,5c-6.9,0.1-14-0.3-20.6-2.5c-12.4-4.2-23.6-12.9-28.4-25.2
	c-3.9-10.1-3.6-21.4,0.9-31.3c2.8-6,7.1-11.3,9.1-17.6c1.8-5.7,1.6-11.7,1.3-17.6c-0.3-5.5,0.3-11,2-16.2
	c3.3-10.7,8.5-20.9,15.8-29.4C41,11.6,53.4,3.7,67,1.2C72.3,0.3,77.7-0.1,83,0C88.9,0,94.8,0.5,100.6,1.4"/>
<g id="编组" transform="translate(42.500000, 93.500000) rotate(-180.000000) translate(-42.500000, -93.500000) translate(36.000000, 87.000000)">
	
		<linearGradient id="路径_6_" gradientUnits="userSpaceOnUse" x1="504.5385" y1="-219.7308" x2="505.5385" y2="-219.7308" gradientTransform="matrix(-13 0 0 13 6559 2863.0027)">
		<stop  offset="0" style="stop-color:#D3DDFD"/>
		<stop  offset="1" style="stop-color:#6085FF"/>
	</linearGradient>
	<path id="路径" class="st1" d="M11.9,6.6C10.7,7.8,9,8.1,7.6,7.5L6.8,8.3v1.4c0,0.2-0.1,0.3-0.3,0.3H5.2v1.2
		c0,0.2-0.1,0.3-0.3,0.3H3.7v1.2c0,0.2-0.1,0.3-0.3,0.3l-3.1,0h0C0.1,13,0,12.9,0,12.7v0l0-1.6c0-0.1,0-0.2,0.1-0.2l5.4-5.4
		C4.9,4,5.2,2.3,6.4,1.1C7.1,0.4,8.1,0,9.1,0c1,0,2,0.4,2.8,1.1C13.4,2.7,13.4,5.1,11.9,6.6z"/>
	<path id="路径_1_" class="st2" d="M10,4C9.5,4,9.2,3.7,9,3.3s0.1-0.9,0.5-1.1c0.4-0.2,0.9-0.2,1.2,0.2C11,2.6,11.1,3,10.9,3.4
		C10.8,3.8,10.4,4,10,4L10,4z"/>
	<path id="路径_2_" class="st2" d="M1.5,11.9C1.4,12,1.3,12,1.2,12C1.1,12,1,11.9,1,11.8c0-0.1,0-0.2,0.1-0.3l5.4-5.4
		C6.6,6,6.8,6,6.9,6.1C7,6.2,7,6.4,6.9,6.5L1.5,11.9L1.5,11.9z"/>
</g>
<g id="编组_1_" transform="translate(142.000000, 16.000000)">
	
		<linearGradient id="路径_7_" gradientUnits="userSpaceOnUse" x1="-549.3333" y1="284.3889" x2="-548.3333" y2="284.3889" gradientTransform="matrix(27 0 0 -18 14832 5128)">
		<stop  offset="0" style="stop-color:#D3DDFD"/>
		<stop  offset="1" style="stop-color:#6085FF"/>
	</linearGradient>
	<path id="路径_3_" class="st3" d="M2,0h23c1.1,0,2,0.8,2,1.7v14.6c0,0.9-0.9,1.7-2,1.7H2c-1.1,0-2-0.8-2-1.7V1.7C0,0.8,0.9,0,2,0
		z"/>
	<polygon id="路径_4_" class="st4" points="15,6 24,6 24,9 15,9 	"/>
	<polygon id="路径_5_" class="st4" points="15,11 24,11 24,14 15,14 	"/>
	<path id="形状结合" class="st4" d="M8.5,3c1.7,0,3,1.3,3,3v1c0,0.8-0.3,1.6-0.9,2.1c1.2,0.3,2.4,1.5,2.4,2.4V15H4v-3.5
		c0-0.9,1.2-2.1,2.4-2.4C5.8,8.6,5.5,7.8,5.5,7V6C5.5,4.3,6.8,3,8.5,3z"/>
</g>
<linearGradient id="Fill-3_1_" gradientUnits="userSpaceOnUse" x1="-419.3897" y1="301.9285" x2="-419.3897" y2="303.4799" gradientTransform="matrix(136 0 0 -26 57150 8002)">
	<stop  offset="0" style="stop-color:#A1B7FF"/>
	<stop  offset="1" style="stop-color:#ECF0FF"/>
</linearGradient>
<path id="Fill-3" class="st5" d="M113,114c37.6,0,68,5.8,68,13c0,7.2-30.4,13-68,13c-37.6,0-68-5.8-68-13C45,119.8,75.4,114,113,114
	"/>
<g id="人" transform="translate(51.811321, 43.002767)">
	<g id="编组-2" transform="translate(14.315013, 11.865365)">
		<path id="Fill-45" class="st6" d="M1.3,2.5l6.8,3.6l13.8-5.5c0.5-0.2,1.1,0,1.3,0.6c0,0,0,0.1,0,0.1l1.7,5.9l0,0
			c0,0-13.1,6.7-15.7,6.8c-2.5,0-9.2-1.8-9.2-1.8L1.3,2.5z"/>
		
			<linearGradient id="Fill-47_1_" gradientUnits="userSpaceOnUse" x1="-466.239" y1="231.9869" x2="-465.7975" y2="231.8779" gradientTransform="matrix(18.5002 0 0 -6.7026 8628.1289 1564.7654)">
			<stop  offset="0" style="stop-color:#D3DDFE"/>
			<stop  offset="1" style="stop-color:#FFFFFF"/>
		</linearGradient>
		<path id="Fill-47" class="st7" d="M7.2,10c-0.8-0.1-4.6-2-5-2.3c0.6,1.2,1.4,5.1,1.5,5.2c1.4,0.7,3,1.2,4.6,1.3
			c1.6,0.1,3.2-0.2,4.7-0.9c0.7-0.4,1.5-0.8,2.2-1.1c0.5-0.2,0.9-0.3,1.4-0.4c1.2-0.5,2.3-1.1,3.3-1.8c0.3-0.2,0.6-0.5,0.7-0.8
			c0.1-0.5-0.3-0.8-0.8-1c-0.7-0.3-1.4-0.4-2.1-0.4c-0.9-0.1-1.9-0.1-2.8,0.1c-0.6,0.2-1,0.7-1.6,1C11.8,9.3,9,10.2,7.2,10"/>
	</g>
	<path id="Fill-27" class="st8" d="M13.6,75.2c0,0.7,0.1,1.4,0.4,2c0.3,0.6,0.8,1.1,1.5,1.4c1.3,0.7,2.9,0.8,4.3,0.4
		c0.2,0,0.4-0.1,0.5-0.3c0.1-0.1,0.1-0.3,0.1-0.4c-0.1-0.8-0.5-1.5-1.1-2c-0.6-0.5-1.1-1.1-1.5-1.8c-0.7-1.3-0.2-4.8-2.7-4.3
		C12.9,70.7,13.6,73.7,13.6,75.2"/>
	<g id="编组_2_" transform="translate(13.144654, 77.484277)">
		<g id="Clip-30">
		</g>
		<defs>
			<filter id="Adobe_OpacityMaskFilter" filterUnits="userSpaceOnUse" x="0" y="0" width="8.9" height="3.4">
				<feColorMatrix  type="matrix" values="1 0 0 0 0  0 1 0 0 0  0 0 1 0 0  0 0 0 1 0"/>
			</filter>
		</defs>
		<mask maskUnits="userSpaceOnUse" x="0" y="0" width="8.9" height="3.4" id="mask-6_1_">
			<g class="st9">
				<path id="path-5_1_" class="st6" d="M0.2,0.1c0,0-0.4,0.9,0.1,1.4l0,0c0.4,0.5,4.9,3.3,8,1.1l0,0C11.2,0.3,4.1,0,4.1,0l0,0
					L0.2,0.1z"/>
			</g>
		</mask>
		
			<linearGradient id="Fill-29_1_" gradientUnits="userSpaceOnUse" x1="-440.5851" y1="145.1893" x2="-439.5851" y2="145.1893" gradientTransform="matrix(8.9295 0 0 -3.4093 3934.2432 496.7143)">
			<stop  offset="0" style="stop-color:#0048AC"/>
			<stop  offset="1" style="stop-color:#6085FF"/>
		</linearGradient>
		<path id="Fill-29" class="st10" d="M0.2,0.1c0,0-0.4,0.9,0.1,1.4l0,0c0.4,0.5,4.9,3.3,8,1.1l0,0C11.2,0.3,4.1,0,4.1,0l0,0L0.2,0.1
			z"/>
	</g>
	<g id="编组_3_" transform="translate(4.842767, 71.257862)">
		<path id="Fill-31" class="st6" d="M8.6,4.3c0.3-0.1,0.6,0,0.8,0.2c0.6,0.7,1.5,1,2.4,0.8c1-0.2,1.4-1.4,1.9-1.4s3.1,2.2,3.3,3.2
			s-1.2,1.7-2.7,1.8S9.5,8,8.8,7.2C8.3,6.3,8.2,5.2,8.6,4.3"/>
		<path id="Fill-33" class="st8" d="M0.2,5.3c0,0.7,0.1,1.4,0.4,2c0.3,0.6,0.9,1.1,1.5,1.4c1.3,0.7,2.9,0.8,4.3,0.4
			c0.2,0,0.4-0.2,0.5-0.3C6.9,8.7,7,8.5,7,8.4c-0.1-0.8-0.5-1.5-1.1-2C5.2,5.9,4.7,5.3,4.3,4.6C3.6,3.3,4.1-0.3,1.6,0.3
			C-0.5,0.8,0.2,3.8,0.2,5.3"/>
	</g>
	<g id="编组_4_" transform="translate(4.150943, 78.867925)">
		<g id="Clip-36">
		</g>
		<defs>
			<filter id="Adobe_OpacityMaskFilter_1_" filterUnits="userSpaceOnUse" x="0.4" y="0" width="8.9" height="3.4">
				<feColorMatrix  type="matrix" values="1 0 0 0 0  0 1 0 0 0  0 0 1 0 0  0 0 0 1 0"/>
			</filter>
		</defs>
		<mask maskUnits="userSpaceOnUse" x="0.4" y="0" width="8.9" height="3.4" id="mask-9_1_">
			<g class="st11">
				<path id="path-8_1_" class="st6" d="M0.6,0.1c0,0-0.4,0.9,0.1,1.4l0,0c0.4,0.5,4.9,3.3,8,1.1l0,0C11.6,0.3,4.5,0,4.5,0l0,0
					L0.6,0.1z"/>
			</g>
		</mask>
		
			<linearGradient id="Fill-35_1_" gradientUnits="userSpaceOnUse" x1="-431.5938" y1="143.7955" x2="-430.5938" y2="143.7955" gradientTransform="matrix(8.93 0 0 -3.4085 3854.5544 491.8323)">
			<stop  offset="0" style="stop-color:#0048AC"/>
			<stop  offset="1" style="stop-color:#6085FF"/>
		</linearGradient>
		<path id="Fill-35" class="st12" d="M0.6,0.1c0,0-0.4,0.9,0.1,1.4l0,0c0.4,0.5,4.9,3.3,8,1.1l0,0C11.6,0.3,4.5,0,4.5,0l0,0L0.6,0.1
			z"/>
	</g>
	<g id="编组_5_" transform="translate(0.000000, 2.767296)">
		<path id="Fill-37" class="st6" d="M4.9,74.2c0.3-0.1,0.6-0.1,0.8,0.2c0.6,0.7,1.5,1,2.4,0.9c1-0.2,1.4-1.4,1.9-1.4
			s3.1,2.2,3.3,3.2c0.1,1-1.2,1.7-2.7,1.8c-1.5,0.1-4.8-0.9-5.5-1.7C4.6,76.2,4.5,75.1,4.9,74.2"/>
		<path id="Fill-39" class="st13" d="M3.3,36.8c0,0-0.5,25.7,1.4,34.3l4.8,0.6l3.3-35.2L3.3,36.8z"/>
		<path id="Fill-41" class="st13" d="M18.2,34c0,0,2.3,13.8-0.5,36.1l-4.8,0.6L9.5,35.6L18.2,34z"/>
		<g id="Fill-43">
			<path id="path-11_1_" class="st6" d="M17.8,24.6c0,2.6-0.6,5.2,0.2,7.7c0.2,0.5,0.3,1.1,0.2,1.7c-0.2,0.5-0.6,0.8-1.1,1
				c-2.3,1.2-4.8,1.6-7.4,2c-1.9,0.3-4.6,0.8-6.4-0.2c-0.7-0.5-1.1-1.2-1.3-2.1c-0.7-2.6-1.1-5.4-1.2-8.1c0-0.4,0-0.7-0.1-1.1
				c-0.1-2.5-0.6-5.9-0.6-8.4c0-1.8,0.6-2.7,1.8-4.1c1.5-1.8,4.5-3,6.8-3.4c0.7-0.1,1.5-0.2,2.2-0.1c1.1,0.2,2.1,0.5,3,1
				c1.1,0.6,2.1,1,2.7,2.1c0.6,1.3,1,2.7,1.3,4.1c0.2,1.3,0.2,2.7,0.1,4c-0.1,0.7-0.2,1.3-0.3,1.9c0,0.1,0,0.2,0,0.4
				C17.8,23.7,17.8,24.1,17.8,24.6z"/>
		</g>
		<defs>
			<filter id="Adobe_OpacityMaskFilter_2_" filterUnits="userSpaceOnUse" x="0" y="13.2" width="17.3" height="24.6">
				<feColorMatrix  type="matrix" values="1 0 0 0 0  0 1 0 0 0  0 0 1 0 0  0 0 0 1 0"/>
			</filter>
		</defs>
		<mask maskUnits="userSpaceOnUse" x="0" y="13.2" width="17.3" height="24.6" id="mask-12_1_">
			<g class="st14">
				<path id="path-11_2_" class="st6" d="M17.8,24.6c0,2.6-0.6,5.2,0.2,7.7c0.2,0.5,0.3,1.1,0.2,1.7c-0.2,0.5-0.6,0.8-1.1,1
					c-2.3,1.2-4.8,1.6-7.4,2c-1.9,0.3-4.6,0.8-6.4-0.2c-0.7-0.5-1.1-1.2-1.3-2.1c-0.7-2.6-1.1-5.4-1.2-8.1c0-0.4,0-0.7-0.1-1.1
					c-0.1-2.5-0.6-5.9-0.6-8.4c0-1.8,0.6-2.7,1.8-4.1c1.5-1.8,4.5-3,6.8-3.4c0.7-0.1,1.5-0.2,2.2-0.1c1.1,0.2,2.1,0.5,3,1
					c1.1,0.6,2.1,1,2.7,2.1c0.6,1.3,1,2.7,1.3,4.1c0.2,1.3,0.2,2.7,0.1,4c-0.1,0.7-0.2,1.3-0.3,1.9c0,0.1,0,0.2,0,0.4
					C17.8,23.7,17.8,24.1,17.8,24.6z"/>
			</g>
		</mask>
		
			<linearGradient id="Fill-49_1_" gradientUnits="userSpaceOnUse" x1="-450.0237" y1="257.1686" x2="-449.8034" y2="256.3382" gradientTransform="matrix(17.3446 0 0 -24.5505 7812.4111 6329.6509)">
			<stop  offset="0" style="stop-color:#D3DDFE"/>
			<stop  offset="1" style="stop-color:#FFFFFF"/>
		</linearGradient>
		<path id="Fill-49" class="st15" d="M4.3,37.2c-0.3-0.1-0.7-0.2-1-0.3c-1.7-0.4-1.9-5.2-2.1-6.5C0.8,27,0.1,23.4,0,20
			c-0.1-1.3,0.1-2.6,0.4-3.9c0.4-1.3,1.3-2.3,2.6-2.8c0.2-0.1,0.5-0.1,0.8-0.1c1,0.3,1.2,2,1.4,2.8c0.3,1.5,1,2.1,1.7,3.3
			c0.7,1.2,0.8,2.6,1.5,3.8c0.2,0.3,0.4,0.6,0.7,0.9c0.6,0.3,1.3,0.5,1.9,0.4h4.9c0.4-0.1,0.8,0,1.1,0.3c0.3,0.4,0.4,0.9,0.3,1.3
			L17,29.6c0,0.2,0,0.3-0.1,0.4c-0.1,0.1-0.3,0.2-0.5,0.3c-1.3,0.2-2.6,0.6-3.9,1.2c-1.2,0.8-2.4,1.5-3.7,2.1
			c-0.4,0.2-0.7,0.4-1,0.7c-0.3,0.4-0.5,1-0.5,1.5c0,0.4,0.4,1.4,0.3,1.7c-0.1,0.1-0.2,0.2-0.3,0.2C6.5,37.9,4.8,37.3,4.3,37.2z"/>
		<path id="Fill-51" class="st8" d="M12.5,7.6c-0.3,0.3-0.6,0.5-1,0.5c-0.3,0-0.7,0-1,0h-0.2c0,0-0.1,0-0.1,0c0,0-0.1,0.1-0.1,0.2
			c-0.1,0.7-0.1,1.3,0,2v0.4c0,0.1,0,0.3,0,0.4c-0.1,0.1-0.2,0.2-0.4,0.3c-0.3,0.1-0.6,0.2-0.9,0.2c-0.7,0-1.3-0.3-1.9-0.6
			c0-1.2,0-2.3-0.2-3.5C6.5,6,6.1,4.5,6.2,3c0-0.6,0.3-1.1,0.6-1.6c0.6-0.6,1.4-0.8,2.2-0.8c1.1,0,2.1,0.3,3,0.8
			c0.3,0.2,0.4,0.5,0.4,0.9c0.1,0.6,0.2,1.2,0.3,1.8s0.1,1.3,0.1,2C13,6.7,12.8,7.2,12.5,7.6"/>
	</g>
	<g id="编组_6_" transform="translate(0.691824, -0.000000)">
		<g id="Clip-54">
		</g>
		<defs>
			<filter id="Adobe_OpacityMaskFilter_3_" filterUnits="userSpaceOnUse" x="0.6" y="0.2" width="11" height="10.5">
				<feColorMatrix  type="matrix" values="1 0 0 0 0  0 1 0 0 0  0 0 1 0 0  0 0 0 1 0"/>
			</filter>
		</defs>
		<mask maskUnits="userSpaceOnUse" x="0.6" y="0.2" width="11" height="10.5" id="mask-15_1_">
			<g class="st16">
				<path id="path-14_1_" class="st6" d="M6.3,1C6.2,1.1,6,1.2,5.8,1.3l0,0C5.7,1.4,5.5,1.4,5.3,1.4l0,0c-0.9,0-1.7,0.2-2.5,0.7l0,0
					C2.1,2.5,1.6,3.4,1.6,4.2l0,0c0,0.2,0,0.3,0,0.5l0,0C1.5,4.9,1.3,5,1.2,5.1l0,0C0.9,5.4,0.7,5.7,0.7,6.1l0,0
					C0.5,7,1.1,7.9,2,8.1l0,0c0.4,0,0.8,0.1,1.2,0.1l0,0c0.4,0.1,0.5,0.4,0.9,0.7l0,0c0.4,0.3,0.7,0.6,1.1,0.9l0,0
					c0.2,0.2,0.4,0.3,0.5,0.5l0,0c0.1,0.1,0.2,0.4,0.4,0.4l0,0c0.2,0,0.3-0.1,0.3-0.3l0,0c0.2-0.7,0.1-1.4-0.1-2l0,0
					C6.1,8.1,6,7.7,6,7.4l0,0C6,7,6.5,6.7,6.7,7l0,0C6.9,7.2,7,7.7,7.3,7.6l0,0C6.9,6.5,7.4,5.4,8.4,4.9l0,0
					c0.7-0.3,1.6-0.1,2.3-0.3l0,0c0.5-0.1,0.9-0.6,0.9-1.1l0,0c0.1-0.5,0-1.1-0.3-1.6l0,0c-0.1-0.2-0.2-0.4-0.4-0.5l0,0
					c-0.6-0.8-1.6-1.2-2.5-1.2l0,0C7.7,0.2,6.9,0.5,6.3,1"/>
			</g>
		</mask>
		
			<linearGradient id="Fill-53_1_" gradientUnits="userSpaceOnUse" x1="-436.9909" y1="251.6301" x2="-435.9909" y2="251.6301" gradientTransform="matrix(10.9835 0 0 -10.5285 4800.3301 2654.7524)">
			<stop  offset="0" style="stop-color:#0048AC"/>
			<stop  offset="1" style="stop-color:#6085FF"/>
		</linearGradient>
		<path id="Fill-53" class="st17" d="M6.3,1C6.2,1.1,6,1.2,5.8,1.3l0,0C5.7,1.4,5.5,1.4,5.3,1.4l0,0c-0.9,0-1.7,0.2-2.5,0.7l0,0
			C2.1,2.5,1.6,3.4,1.6,4.2l0,0c0,0.2,0,0.3,0,0.5l0,0C1.5,4.9,1.3,5,1.2,5.1l0,0C0.9,5.4,0.7,5.7,0.7,6.1l0,0C0.5,7,1.1,7.9,2,8.1
			l0,0c0.4,0,0.8,0.1,1.2,0.1l0,0c0.4,0.1,0.5,0.4,0.9,0.7l0,0c0.4,0.3,0.7,0.6,1.1,0.9l0,0c0.2,0.2,0.4,0.3,0.5,0.5l0,0
			c0.1,0.1,0.2,0.4,0.4,0.4l0,0c0.2,0,0.3-0.1,0.3-0.3l0,0c0.2-0.7,0.1-1.4-0.1-2l0,0C6.1,8.1,6,7.7,6,7.4l0,0C6,7,6.5,6.7,6.7,7
			l0,0C6.9,7.2,7,7.7,7.3,7.6l0,0C6.9,6.5,7.4,5.4,8.4,4.9l0,0c0.7-0.3,1.6-0.1,2.3-0.3l0,0c0.5-0.1,0.9-0.6,0.9-1.1l0,0
			c0.1-0.5,0-1.1-0.3-1.6l0,0c-0.1-0.2-0.2-0.4-0.4-0.5l0,0c-0.6-0.8-1.6-1.2-2.5-1.2l0,0C7.7,0.2,6.9,0.5,6.3,1"/>
	</g>
	<g id="编组_7_" transform="translate(0.000000, 9.993711)">
		<path id="Fill-55" class="st18" d="M10.5,1h-0.2c0,0-0.1,0-0.1,0c0,0-0.1,0.1-0.1,0.2c-0.1,0.7-0.1,1.3,0,2
			c-1.2-0.4-2-1.6-1.9-2.9C8.9,0.6,9.7,0.8,10.5,1L10.5,1z"/>
		<path id="形状结合_1_" class="st6" d="M7.3,8.4l2.3,6.5c0.5-0.1,1-0.1,1.6-0.1l9.2-0.9l1.5,4.5c0,0-9.5,3.8-14,4.2
			c-1.8,0.3-3.5-0.6-4.2-2.4l-3.3-9.4C-0.3,9,0.6,7,2.4,6.2l0.2-0.1C4.5,5.5,6.6,6.5,7.3,8.4z"/>
	</g>
</g>
<g id="盾" transform="translate(79.000000, 37.000000)">
	<g id="盾左" transform="translate(0.000000, 0.000000)">
		
			<linearGradient id="Clip-8_2_" gradientUnits="userSpaceOnUse" x1="-491.4174" y1="270.2412" x2="-491.2177" y2="269.4758" gradientTransform="matrix(42 0 0 -94 20661 25422)">
			<stop  offset="0" style="stop-color:#D3DDFD"/>
			<stop  offset="1" style="stop-color:#6085FF"/>
		</linearGradient>
		<path id="Clip-8" class="st19" d="M42,94V0C29.3,11.3,15.3,18.7,0,22C0,61.3,14,85.3,42,94z"/>
		
			<linearGradient id="Clip-12_2_" gradientUnits="userSpaceOnUse" x1="-490.0676" y1="269.241" x2="-490.0676" y2="270.241" gradientTransform="matrix(37 0 0 -83 18156 22436)">
			<stop  offset="0" style="stop-color:#99BBFF"/>
			<stop  offset="1" style="stop-color:#6085FF"/>
		</linearGradient>
		<path id="Clip-12" class="st20" d="M42,6c-8.7,8-21,14.7-37,20c0.7,32,13,53,37,63V6z"/>
	</g>
	
		<g id="盾右" transform="translate(63.000000, 47.000000) scale(-1, 1) translate(-63.000000, -47.000000) translate(42.000000, 0.000000)">
		
			<linearGradient id="Clip-8_3_" gradientUnits="userSpaceOnUse" x1="595.4623" y1="270.4452" x2="595.2901" y2="269.4744" gradientTransform="matrix(-42 0 0 -94 25035 25422)">
			<stop  offset="0" style="stop-color:#FFFFFF"/>
			<stop  offset="1" style="stop-color:#6085FF"/>
		</linearGradient>
		<path id="Clip-8_1_" class="st21" d="M42,94V0C29.3,11.3,15.3,18.7,0,22C0,61.3,14,85.3,42,94z"/>
		
			<linearGradient id="Clip-12_3_" gradientUnits="userSpaceOnUse" x1="596.9324" y1="270.241" x2="596.9324" y2="269.241" gradientTransform="matrix(-37 0 0 -83 22110 22436)">
			<stop  offset="0" style="stop-color:#99BBFF"/>
			<stop  offset="1" style="stop-color:#6085FF"/>
		</linearGradient>
		<path id="Clip-12_1_" class="st22" d="M42,6c-8.7,8-21,14.7-37,20c0.7,32,13,53,37,63V6z"/>
	</g>
	
		<linearGradient id="形状结合_3_" gradientUnits="userSpaceOnUse" x1="-471.3752" y1="265.9396" x2="-471.0869" y2="264.9264" gradientTransform="matrix(14 0 0 -24 6640 6417)">
		<stop  offset="0" style="stop-color:#2E56D9"/>
		<stop  offset="1" style="stop-color:#6085FF"/>
	</linearGradient>
	
		<linearGradient id="形状结合_4_" gradientUnits="userSpaceOnUse" x1="-471.2463" y1="264.8781" x2="-471.5304" y2="265.8959" gradientTransform="matrix(14 0 0 -24 6640 6417)">
		<stop  offset="0" style="stop-color:#99BBFF"/>
		<stop  offset="0.9999" style="stop-color:#FFFFFF"/>
	</linearGradient>
	<path id="形状结合_2_" class="st23" d="M42,35c3.9,0,7,3.1,7,7c0,3.3-2.3,6.1-5.4,6.8L46,59h-8l2.4-10.2
		C37.3,48.1,35,45.3,35,42C35,38.1,38.1,35,42,35z"/>
</g>
<path id="Fill-63" class="st8" d="M92,56.8c0.3,0.1,0.6,0,0.8-0.2c0.3-0.4,0.1-0.9-0.2-1.3c0.2-0.2,0.6,0,0.8,0.3
	c0.2,0.2,0.4,0.5,0.7,0.5c0.3,0,0.5-0.4,0.4-0.7c-0.1-0.3-0.3-0.6-0.4-0.8c0.1-0.2,0.4,0,0.5,0.2c0.1,0.2,0.3,0.4,0.5,0.4
	c0.2-0.1,0.3-0.3,0.2-0.5c-0.1-0.2-0.1-0.4-0.1-0.5c0.4-0.1,0.8,0.3,1.1,0.1c0.2-0.2,0.3-0.5,0.1-0.7c0,0,0,0,0,0
	c-0.2-0.2-0.5-0.3-0.8-0.4c-0.7-0.2-1.5-0.1-2.2,0.3c-0.8,0.3-1.6,0.5-2.4,0.9c-0.7,0.3-1.3,0.8-1.8,1.4c-0.1,0.1,0,0.3,0.1,0.4
	c0.1,0,0.2,0,0.3,0c0.5-0.1,1.1,0,1.6,0.3c0.3,0.2,0.5,0.3,0.8,0.5L92,56.8z"/>
<path id="手" class="st8" d="M74.6,66.3c0.3-0.3,0.7-0.5,1-0.8c0.8-0.7,1.6-1.2,2.5-1.7c0.9-0.4,2-0.6,3-0.4c0.2,0,0.5,0.2,0.4,0.4
	c0,0.2-0.2,0.2-0.3,0.3c-0.6,0.3-1.2,0.6-1.8,0.8c-0.3,0.1-0.6,0.2-0.7,0.4c0.2,0,0.4,0,0.6-0.1c0.8-0.2,1.6-0.3,2.4-0.2
	c0.1,0,0.2,0,0.2,0.1s0,0.2-0.1,0.3c-0.8,0.6-1.9,0.6-2.7,1.2c-0.1,0.1-0.2,0.3-0.1,0.4c0.1,0,0.1,0,0.2,0c0.3,0,0.6-0.1,0.9-0.2
	c0.5-0.1,1-0.1,1.5,0c0.1,0,0.1,0,0.2,0.1c0.1,0.1-0.1,0.2-0.2,0.3L79,68.5c0.4,0,0.7,0,1.1,0c0.4,0,0.7,0.1,1,0.3c0,0,0,0,0,0.1
	c0,0,0,0.1-0.1,0.1c-0.4,0.2-0.9,0.4-1.4,0.4c-0.3,0-0.6,0.1-0.9,0.2c-0.2,0.1-0.3,0.1-0.5,0.2c-0.5,0.3-1.1,0.5-1.6,0.6
	c-0.6,0.1-1.2,0-1.7-0.3c-0.1-0.1-0.3-0.2-0.4-0.2c-0.6-0.2-1.2,0.4-1.7,0.2c-0.2-0.1-0.3-0.3-0.4-0.5c-0.3-0.5-1.2-1.7-0.5-2.2
	c0.4-0.2,0.9-0.3,1.3-0.4C73.8,66.8,74.2,66.6,74.6,66.3"/>
<linearGradient id="椭圆形_1_" gradientUnits="userSpaceOnUse" x1="-419.9075" y1="308.4231" x2="-419.8709" y2="308.5805" gradientTransform="matrix(162.0316 55.792 22.1386 -64.2953 61320.1484 43329.6758)">
	<stop  offset="0" style="stop-color:#6085FF"/>
	<stop  offset="1" style="stop-color:#CFDAFD"/>
</linearGradient>
<path id="椭圆形" class="st24" d="M100.9,99.8c36.2,12.5,70.2,12.9,83.9,2.4c4.1,0.9,9.1-1.2,10.1-4.1c1-2.9-1-9-4.4-12.8
	c-4.4-16.8-31.4-37.3-67.6-49.7c-43.3-14.9-83.4-12.6-89.5,5.1S57.6,84.8,100.9,99.8z"/>
<g id="齿轮" transform="translate(175.000000, 82.000000)">
	<path id="Fill-87" class="st13" d="M8.9,11.6c-0.8,2.6,0.7,5.4,3.4,6.2c2.6,0.8,5.4-0.7,6.2-3.4c0.8-2.6-0.7-5.4-3.4-6.2h0
		C12.5,7.4,9.7,8.9,8.9,11.6L8.9,11.6z M17.8,25.1c-0.4-0.1-0.8-0.4-1-0.8c-0.2-0.3-0.3-0.6-0.5-0.9c-0.3-0.6-0.9-0.9-1.6-0.8
		c-0.7,0-1.2,0.5-1.4,1.1c-0.1,0.3-0.2,0.7-0.3,1c-0.3,0.9-1.2,1.4-2.1,1.1L9,25.3c-0.9-0.2-1.4-1.2-1.2-2.1c0,0,0,0,0,0
		c0.1-0.3,0.2-0.7,0.3-1c0.2-0.6,0-1.3-0.6-1.6c-0.5-0.4-1.2-0.5-1.7-0.2c-0.3,0.1-0.6,0.3-0.9,0.5c-0.8,0.5-1.9,0.2-2.3-0.7
		c0,0,0,0,0,0c-0.3-0.6-0.7-1.2-1-1.8c-0.5-0.8-0.2-1.8,0.6-2.3c0,0,0.1,0,0.1-0.1c0.3-0.2,0.6-0.3,0.8-0.5C3.8,15.3,4.1,14.7,4,14
		c0-0.6-0.5-1.2-1.1-1.4c-0.3-0.1-0.7-0.2-1-0.3c-0.9-0.2-1.4-1.2-1.2-2.1c0-0.1,0-0.1,0-0.2c0.2-0.6,0.3-1.2,0.5-1.8
		c0.2-0.9,1.1-1.4,2-1.2C3.6,7.2,4,7.3,4.3,7.4c0.8,0.3,1.7-0.2,2-1C6.5,6,6.4,5.5,6.2,5.1C6,4.8,5.9,4.5,5.7,4.3
		C5.3,3.5,5.6,2.5,6.4,2c0,0,0,0,0,0c0.6-0.4,1.3-0.7,2-1.1c0.8-0.4,1.8-0.1,2.3,0.7C10.8,2,11,2.3,11.1,2.6
		c0.3,0.6,0.9,0.9,1.5,0.8c0.6,0,1.2-0.5,1.3-1.1c0.1-0.3,0.2-0.6,0.3-0.9c0.2-0.9,1.2-1.5,2.1-1.2c0,0,0.1,0,0.1,0l1.8,0.5
		c0.9,0.2,1.5,1.2,1.2,2.1c0,0,0,0.1,0,0.1c-0.1,0.3-0.2,0.6-0.3,0.9c-0.2,0.6,0,1.3,0.5,1.7c0.5,0.4,1.2,0.5,1.8,0.1
		c0.3-0.1,0.5-0.3,0.8-0.4c0.8-0.5,1.9-0.1,2.3,0.7c0,0,0,0,0,0c0.3,0.6,0.7,1.2,1,1.9c0.4,0.8,0.2,1.8-0.6,2.3c0,0,0,0-0.1,0
		c-0.3,0.2-0.6,0.3-0.9,0.5c-0.5,0.3-0.8,0.8-0.8,1.4c0,0.6,0.4,1.2,0.9,1.4c0.3,0.1,0.7,0.2,1.1,0.3c0.8,0.2,1.4,1,1.2,1.9
		c0,0.1,0,0.1,0,0.2c-0.2,0.7-0.4,1.4-0.6,2.1c-0.2,0.9-1.1,1.4-1.9,1.2c-0.1,0-0.1,0-0.2-0.1c-0.3-0.1-0.6-0.2-1-0.3
		c-0.6-0.2-1.2,0.1-1.6,0.6c-0.4,0.5-0.5,1.1-0.1,1.7c0.2,0.3,0.3,0.6,0.5,0.9c0.5,0.8,0.2,1.8-0.6,2.3c0,0,0,0,0,0
		c-0.6,0.3-1.2,0.7-1.9,1C18.7,25.2,18.2,25.2,17.8,25.1L17.8,25.1z"/>
	
		<linearGradient id="Fill-89_1_" gradientUnits="userSpaceOnUse" x1="-581.6806" y1="220.867" x2="-580.6806" y2="220.867" gradientTransform="matrix(25.9201 0 0 -25.9189 15077.1943 5737.9131)">
		<stop  offset="0" style="stop-color:#D3DDFD"/>
		<stop  offset="1" style="stop-color:#6085FF"/>
	</linearGradient>
	<path id="Fill-89" class="st25" d="M14.4,0.6c-0.4,0.2-0.6,0.6-0.8,1l0,0c-0.1,0.3-0.2,0.6-0.3,1l0,0c-0.2,0.6-0.7,1.1-1.4,1.1l0,0
		c-0.6,0.1-1.2-0.2-1.5-0.8l0,0C10.3,2.6,10.2,2.3,10,2l0,0C9.5,1.2,8.6,0.9,7.7,1.3l0,0C7,1.6,6.4,2,5.8,2.3l0,0
		C5,2.7,4.7,3.7,5.1,4.5l0,0c0,0,0,0,0,0l0,0c0.1,0.3,0.3,0.5,0.4,0.8l0,0c0.4,0.6,0.3,1.3-0.1,1.8l0,0C5,7.7,4.3,7.9,3.7,7.7l0,0
		C3.3,7.6,3,7.5,2.6,7.4l0,0c-0.9-0.2-1.8,0.3-2,1.2l0,0c-0.2,0.6-0.4,1.2-0.5,1.8l0,0c-0.3,0.9,0.1,1.8,1,2.2l0,0
		c0.1,0,0.1,0,0.2,0l0,0c0.3,0.1,0.7,0.2,1,0.3l0,0c0.6,0.2,1,0.7,1.1,1.4l0,0c0.1,0.6-0.2,1.2-0.8,1.5l0,0C2.3,16,2,16.1,1.7,16.3
		l0,0c-0.8,0.4-1.2,1.4-0.8,2.2l0,0c0,0,0,0.1,0.1,0.1l0,0c0.3,0.6,0.7,1.2,1,1.8l0,0c0.5,0.8,1.5,1.2,2.4,0.7l0,0c0,0,0,0,0,0l0,0
		c0.3-0.2,0.6-0.3,0.9-0.5l0,0c0.5-0.3,1.2-0.2,1.7,0.2l0,0c0.3,0.2,0.4,0.4,0.5,0.7l0,0c0.1,0.3,0.1,0.6,0,0.9l0,0
		c-0.1,0.2-0.1,0.4-0.2,0.7l0,0l-0.1,0.4c-0.1,0.6,0,1.1,0.3,1.6l0,0c0.2,0.3,0.5,0.5,0.8,0.5l0,0l1.9,0.6c0.9,0.3,1.8-0.2,2.1-1.1
		l0,0c0.1-0.3,0.2-0.7,0.3-1l0,0c0.2-0.6,0.7-1.1,1.4-1.1l0,0c0.6-0.1,1.3,0.2,1.6,0.8l0,0c0.2,0.3,0.3,0.6,0.5,0.9l0,0
		c0.5,0.8,1.5,1.1,2.3,0.7l0,0c0.6-0.3,1.2-0.7,1.9-1l0,0c0.8-0.4,1.1-1.4,0.7-2.2l0,0c0,0,0,0,0-0.1l0,0c-0.2-0.3-0.3-0.6-0.5-0.9
		l0,0c-0.3-0.5-0.3-1.2,0.1-1.7l0,0c0.4-0.5,1-0.7,1.6-0.6l0,0c0.3,0.1,0.6,0.2,1,0.3l0,0c0.8,0.3,1.7-0.1,2-1l0,0c0,0,0-0.1,0-0.1
		l0,0c0.2-0.7,0.4-1.4,0.6-2.1l0,0c0.3-0.8-0.1-1.7-0.9-2l0,0c-0.1,0-0.1,0-0.2-0.1l0,0c-0.4-0.1-0.7-0.2-1.1-0.3l0,0
		c-0.6-0.2-1-0.8-0.9-1.4l0,0c0-0.6,0.3-1.1,0.8-1.4l0,0c0.3-0.2,0.6-0.3,0.9-0.5l0,0c0.8-0.4,1.1-1.4,0.7-2.2l0,0c0,0,0,0,0-0.1
		l0,0c-0.3-0.6-0.7-1.2-1-1.9l0,0c-0.5-0.8-1.5-1.1-2.3-0.7l0,0c0,0,0,0,0,0l0,0l-0.8,0.4c-0.6,0.3-1.3,0.3-1.8-0.1l0,0
		c-0.1-0.1-0.1-0.1-0.2-0.2l0,0c-0.4-0.4-0.5-1-0.3-1.5l0,0c0,0,0-0.1,0.1-0.2l0,0c0.1-0.3,0.1-0.5,0.2-0.8l0,0
		c0.3-0.9-0.2-1.8-1.1-2.1l0,0l-0.1,0c-0.4-0.1-0.9-0.3-1.3-0.4l0,0l-0.4-0.1l-0.3-0.1c-0.1,0-0.2,0-0.3,0l0,0
		C15,0.3,14.7,0.4,14.4,0.6 M12.9,18.3c-0.2,0-0.4,0-0.6-0.1l0,0c-0.2,0-0.5-0.1-0.7-0.1l0,0c-0.2,0-0.3-0.1-0.4-0.2l0,0
		c-2.6-1-3.8-3.9-2.8-6.5l0,0c1-2.4,3.6-3.7,6.1-2.9l0,0c0.4,0.1,0.9,0.3,1.3,0.6l0,0c0.3,0.2,0.7,0.5,0.9,0.8l0,0
		c0.2,0.2,0.3,0.3,0.4,0.5l0,0c0.3,0.4,0.6,0.9,0.7,1.5l0,0c0.3,0.9,0.3,1.9,0,2.8l0,0c-0.6,2.1-2.6,3.6-4.8,3.6l0,0
		C13,18.3,12.9,18.3,12.9,18.3"/>
</g>
</svg>
