<?xml version="1.0" encoding="utf-8"?>
<!-- Generator: Adobe Illustrator 24.2.1, SVG Export Plug-In . SVG Version: 6.00 Build 0)  -->
<svg version="1.1" id="图层_1" xmlns="http://www.w3.org/2000/svg" xmlns:xlink="http://www.w3.org/1999/xlink" x="0px" y="0px"
	 viewBox="0 0 220 160" style="enable-background:new 0 0 220 160;" xml:space="preserve">
<style type="text/css">
	.st0{fill:#F5F7FF;}
	.st1{fill-rule:evenodd;clip-rule:evenodd;fill:url(#路径-2备份-13_1_);}
	.st2{fill-rule:evenodd;clip-rule:evenodd;fill:#FFFFFF;}
	.st3{fill-rule:evenodd;clip-rule:evenodd;fill:url(#路径-2_2_);}
	.st4{fill-rule:evenodd;clip-rule:evenodd;fill:url(#路径-2备份_1_);}
	.st5{fill-rule:evenodd;clip-rule:evenodd;fill:url(#路径-2备份-3_1_);}
	.st6{fill-rule:evenodd;clip-rule:evenodd;fill:url(#路径-2备份-5_1_);}
	.st7{fill-rule:evenodd;clip-rule:evenodd;fill:url(#路径-2备份-10_1_);}
	.st8{fill-rule:evenodd;clip-rule:evenodd;fill:url(#路径-2备份-2_1_);}
	.st9{fill-rule:evenodd;clip-rule:evenodd;fill:url(#路径-2备份-4_1_);}
	.st10{fill-rule:evenodd;clip-rule:evenodd;fill:url(#路径-2备份-8_1_);}
	.st11{fill-rule:evenodd;clip-rule:evenodd;fill:url(#路径-2备份-11_1_);}
	.st12{fill-rule:evenodd;clip-rule:evenodd;fill:url(#路径-2备份-9_1_);}
	.st13{fill-rule:evenodd;clip-rule:evenodd;fill:url(#路径-2备份-6_1_);}
	.st14{fill-rule:evenodd;clip-rule:evenodd;fill:#6B8DFF;}
	.st15{fill-rule:evenodd;clip-rule:evenodd;fill:url(#路径_17_);}
	.st16{fill:#FCAB9A;}
	.st17{fill-rule:evenodd;clip-rule:evenodd;fill:#FCAB9A;}
	.st18{fill:#6085FF;}
	.st19{fill-rule:evenodd;clip-rule:evenodd;fill:url(#路径_18_);}
	.st20{fill-rule:evenodd;clip-rule:evenodd;fill:url(#椭圆形_3_);}
	.st21{fill:#FFFFFF;}
	.st22{fill:url(#路径_19_);}
	.st23{fill-rule:evenodd;clip-rule:evenodd;fill:url(#路径_20_);}
</style>
<path id="路径" class="st0" d="M95.1,8.4c-1.7,0.8-3.4,1.7-5.1,2.7C70.7,22.8,55.8,42.9,35.8,51.8c-19.1,8.5-32,23.1-35.2,45.4
	c-2.7,19.1,2.6,34.3,15.1,48.4c13,14.6,48.8,14.6,64,6.4c11.4-6.2,27.5-3.7,41-0.8c9,1.9,20.2,10.3,46.3,8.6
	c26.1-1.7,38.9-17.6,45.8-28.1c5.4-8.2,7.8-18.1,7-28c-0.9-9.9-4.8-19.2-11-26.7c-2.8-3.4-6.4-6.3-7.7-10.6c-1.4-4.3-1.6-9.2-2-13.6
	c-0.9-9.6-2-19.5-6.5-27.9C187.7,15.5,179,8.8,169.4,5c-9.5-3.8-19.9-4.9-30.1-5C124.3-0.1,108.8,1.8,95.1,8.4z"/>
<g id="web" transform="translate(34.235878, 21.819005)">
	
		<linearGradient id="路径-2备份-13_1_" gradientUnits="userSpaceOnUse" x1="-453.067" y1="284.0829" x2="-454.4026" y2="284.601" gradientTransform="matrix(135.0437 0 0 -105.7594 61334.0195 30129.0742)">
		<stop  offset="1.283872e-03" style="stop-color:#E8EDFF"/>
		<stop  offset="1" style="stop-color:#C7D4FF"/>
	</linearGradient>
	<path id="路径-2备份-13" class="st1" d="M10.2,113.1L32.4,10.8l0,0l110.8-1.1c1.1,0,2,0.9,2,2c0,0.2,0,0.3,0,0.5l-22.8,100.7
		c-0.2,0.9-1,1.5-1.9,1.6l-108.2,1c-1.1,0-2-0.9-2-2C10.2,113.4,10.2,113.2,10.2,113.1z"/>
	<path id="路径-2" class="st2" d="M0.5,103.4L21.3,1.6c0.2-0.9,1-1.6,2-1.6h109.3c1.1,0,2,0.9,2,2c0,0.1,0,0.3,0,0.4l-21.8,101.8
		c-0.2,0.9-1,1.6-2,1.6H2.4c-1.1,0-2-0.9-2-2C0.4,103.7,0.5,103.5,0.5,103.4z"/>
	
		<linearGradient id="路径-2_2_" gradientUnits="userSpaceOnUse" x1="-453.8611" y1="258.4516" x2="-452.5255" y2="258.4496" gradientTransform="matrix(114.0051 0 0 -5.3983 51724.7461 1397.9011)">
		<stop  offset="0" style="stop-color:#4D73F0"/>
		<stop  offset="1" style="stop-color:#C7D4FF"/>
	</linearGradient>
	<path id="路径-2_1_" class="st3" d="M20.5,5.4l0.8-3.8c0.2-0.9,1-1.6,2-1.6h109.3c1.1,0,2,0.9,2,2c0,0.1,0,0.3,0,0.4l-0.6,3l0,0
		H20.5z"/>
	<circle id="椭圆形" class="st2" cx="24.8" cy="2.7" r="1.1"/>
	<circle id="椭圆形备份" class="st2" cx="28.1" cy="2.7" r="1.1"/>
	<circle id="椭圆形备份-2" class="st2" cx="31.3" cy="2.7" r="1.1"/>
	
		<linearGradient id="路径-2备份_1_" gradientUnits="userSpaceOnUse" x1="-447.7205" y1="258.4466" x2="-449.0544" y2="258.4567" gradientTransform="matrix(49.6647 0 0 -5.3983 22308.1504 1408.6976)">
		<stop  offset="0" style="stop-color:#E8EDFF"/>
		<stop  offset="1" style="stop-color:#C7D4FF"/>
	</linearGradient>
	<polygon id="路径-2备份" class="st4" points="22.7,16.2 23.8,10.8 72.3,10.8 71.3,16.2 	"/>
	
		<linearGradient id="路径-2备份-3_1_" gradientUnits="userSpaceOnUse" x1="-447.7188" y1="258.4466" x2="-449.0544" y2="258.4567" gradientTransform="matrix(49.6647 0 0 -5.3983 22305.9902 1419.4946)">
		<stop  offset="1.283872e-03" style="stop-color:#E8EDFF"/>
		<stop  offset="1" style="stop-color:#C7D4FF"/>
	</linearGradient>
	<polygon id="路径-2备份-3" class="st5" points="20.5,27 21.6,21.6 70.2,21.6 69.1,27 	"/>
	
		<linearGradient id="路径-2备份-5_1_" gradientUnits="userSpaceOnUse" x1="-452.3944" y1="280.2156" x2="-453.73" y2="280.267" gradientTransform="matrix(110.1261 0 0 -26.9917 49943.5391 7613.1348)">
		<stop  offset="1.283872e-03" style="stop-color:#E8EDFF"/>
		<stop  offset="1" style="stop-color:#C7D4FF"/>
	</linearGradient>
	<polygon id="路径-2备份-5" class="st6" points="13,62.6 18.4,35.6 123.1,35.6 117.7,62.6 	"/>
	
		<linearGradient id="路径-2备份-10_1_" gradientUnits="userSpaceOnUse" x1="-448.3931" y1="280.1536" x2="-449.7287" y2="280.3677" gradientTransform="matrix(53.9834 0 0 -26.9917 24321.6699 7648.7651)">
		<stop  offset="1.283872e-03" style="stop-color:#E8EDFF"/>
		<stop  offset="1" style="stop-color:#C7D4FF"/>
	</linearGradient>
	<polygon id="路径-2备份-10" class="st7" points="61.5,98.2 66.9,71.3 115.5,71.3 109,98.2 	"/>
	
		<linearGradient id="路径-2备份-2_1_" gradientUnits="userSpaceOnUse" x1="-448.4001" y1="258.4472" x2="-449.7357" y2="258.4557" gradientTransform="matrix(53.9834 0 0 -5.3983 24334.623 1408.6976)">
		<stop  offset="1.283872e-03" style="stop-color:#E8EDFF"/>
		<stop  offset="1" style="stop-color:#C7D4FF"/>
	</linearGradient>
	<polygon id="路径-2备份-2" class="st8" points="74.5,16.2 75.6,10.8 128.5,10.8 127.4,16.2 	"/>
	
		<linearGradient id="路径-2备份-4_1_" gradientUnits="userSpaceOnUse" x1="-448.4001" y1="258.4472" x2="-449.7357" y2="258.4557" gradientTransform="matrix(53.9834 0 0 -5.3983 24332.4668 1419.4946)">
		<stop  offset="1.283872e-03" style="stop-color:#E8EDFF"/>
		<stop  offset="1" style="stop-color:#C7D4FF"/>
	</linearGradient>
	<polygon id="路径-2备份-4" class="st9" points="72.3,27 73.4,21.6 126.3,21.6 125.2,27 	"/>
	
		<linearGradient id="路径-2备份-8_1_" gradientUnits="userSpaceOnUse" x1="-433.1887" y1="258.4226" x2="-434.5243" y2="258.4966" gradientTransform="matrix(18.3543 0 0 -5.3983 8009.2119 1479.9543)">
		<stop  offset="1.283872e-03" style="stop-color:#E8EDFF"/>
		<stop  offset="1" style="stop-color:#C7D4FF"/>
	</linearGradient>
	<polygon id="路径-2备份-8" class="st10" points="39.9,87.5 41,82.1 58.3,82.1 57.2,87.5 	"/>
	
		<linearGradient id="路径-2备份-11_1_" gradientUnits="userSpaceOnUse" x1="-433.1887" y1="258.4226" x2="-434.5243" y2="258.4966" gradientTransform="matrix(18.3543 0 0 -5.3983 8010.29 1472.3967)">
		<stop  offset="1.283872e-03" style="stop-color:#E8EDFF"/>
		<stop  offset="1" style="stop-color:#C7D4FF"/>
	</linearGradient>
	<polygon id="路径-2备份-11" class="st11" points="41,79.9 42.1,74.5 59.4,74.5 58.3,79.9 	"/>
	
		<linearGradient id="路径-2备份-9_1_" gradientUnits="userSpaceOnUse" x1="-433.1887" y1="258.4226" x2="-434.5243" y2="258.4966" gradientTransform="matrix(18.3543 0 0 -5.3983 8008.1323 1487.5121)">
		<stop  offset="1.283872e-03" style="stop-color:#E8EDFF"/>
		<stop  offset="1" style="stop-color:#C7D4FF"/>
	</linearGradient>
	<polygon id="路径-2备份-9" class="st12" points="38.9,95 39.9,89.6 57.2,89.6 56.1,95 	"/>
	
		<linearGradient id="路径-2备份-6_1_" gradientUnits="userSpaceOnUse" x1="-441.5182" y1="279.959" x2="-442.8538" y2="280.5954" gradientTransform="matrix(28.8303 0 0 -26.9917 12767.1201 7648.7651)">
		<stop  offset="1.283872e-03" style="stop-color:#E8EDFF"/>
		<stop  offset="1" style="stop-color:#C7D4FF"/>
	</linearGradient>
	<path id="路径-2备份-6" class="st13" d="M8.1,84.8c1.6-7.8,8.5-13.5,16.5-13.5h1.4l0,0l-3.2,14h14c-1.2,7.5-7.7,13-15.3,13
		h-2.3c-6.2,0-11.3-5.1-11.3-11.3C7.9,86.2,8,85.5,8.1,84.8z"/>
	<path id="路径-3" class="st14" d="M23.8,84.2l3.2-14c2.9,0,5.4,1.4,7.6,4.3c2.2,2.9,3.2,6.1,3.2,9.7H23.8z"/>
</g>
<g id="火箭" transform="translate(21.642534, 48.810685)">
	
		<linearGradient id="路径_17_" gradientUnits="userSpaceOnUse" x1="-439.3416" y1="254.476" x2="-438.3416" y2="254.3325" gradientTransform="matrix(79.7808 0 0 -34.544 35051.7852 8818.9209)">
		<stop  offset="0" style="stop-color:#D3DDFD"/>
		<stop  offset="1" style="stop-color:#6085FF"/>
	</linearGradient>
	<path id="路径_1_" class="st15" d="M76.9,30.2c0,0-62.7,20.9-71.3,2.1c-4.5-9.9,6.4-16,17.8-19.6c0-0.6,0,0.4,0-0.3
		c-14.1,4-27.1,11.4-21,24.7c10,22,78.3,0.2,78.3,0.2L76.9,30.2z"/>
	<path id="路径_2_" class="st16" d="M103.3,6.1c0.2,0.2,0.3,0.4,0.6,0.5c0.8,0.4,4.2,1.7,7,2c1.1,0,2.2-1.1,2.2-1.1
		c-1.4,0-4.3-1.1-8.5-3.2c0,0-0.1-0.1-0.2-0.1c-0.1,0-0.2,0-0.3,0.1c-0.2,0.3-0.3,0.6-0.3,0.9c0,0.2,0,0.3,0,0.5
		c0,0.1,0.1,0.2,0.1,0.3C103.9,6.2,103.3,6.1,103.3,6.1z"/>
	<path id="路径-4" class="st17" d="M84.4,23.2l-4.1,1.7c-1.5,0.7-2.2,2.4-1.6,3.9c0,0.1,0,0.1,0.1,0.2l3.2,6.5
		c0.7,1.5,2.5,2.1,4,1.3l3.3-1.7l0,0L84.4,23.2z"/>
	<path id="路径_3_" class="st17" d="M95.7,17.9c0,0-14.7-13.6-29.2,0c0,0,11.1-1.5,14.6,4.7L95.7,17.9z"/>
	<path id="路径_4_" class="st17" d="M101.1,31.3c0,0-0.7,20.7-20.5,21.6c0,0,9.5-9.2,7.6-16.2L101.1,31.3z"/>
	<path id="路径_5_" class="st18" d="M80.6,22.7c0,0,46.3-25.9,72.3-21.6c0,0-5.9,18.7-65.3,36.7L80.6,22.7z"/>
	
		<linearGradient id="路径_18_" gradientUnits="userSpaceOnUse" x1="-437.794" y1="254.34" x2="-439.1164" y2="254.0948" gradientTransform="matrix(72.3377 0 0 -33.0445 31822.0273 8418.2129)">
		<stop  offset="0" style="stop-color:#D3DDFD"/>
		<stop  offset="1" style="stop-color:#6085FF"/>
	</linearGradient>
	<path id="路径_6_" class="st19" d="M153,1.1c-4.1,5.4-18.3,15-47.5,25.7c-1.6,0.6-3.3,1.2-5.1,1.8c-4.6,1.6-9.5,3.2-14.8,4.8
		l-4.9-10.8c0,0,8.5-4.7,16.2-8.6c4.1-2.1,5.5-2.2,10.7-4.4C122.1,3.5,139.8-1.4,153,1.1z"/>
	
		<linearGradient id="椭圆形_3_" gradientUnits="userSpaceOnUse" x1="-405.4072" y1="245.4134" x2="-404.4072" y2="244.6479" gradientTransform="matrix(10.7967 0 0 -10.7967 4483.1045 2662.1787)">
		<stop  offset="0" style="stop-color:#D3DDFD"/>
		<stop  offset="1" style="stop-color:#6085FF"/>
	</linearGradient>
	<circle id="椭圆形_1_" class="st20" cx="110.8" cy="16.2" r="5.4"/>
	<circle id="椭圆形_2_" class="st21" cx="110.8" cy="16.2" r="3.2"/>
</g>
<g id="人物" transform="translate(109.812582, 41.253014)">
	
		<linearGradient id="路径_19_" gradientUnits="userSpaceOnUse" x1="-514.866" y1="260.1991" x2="-511.8108" y2="260.4811" gradientTransform="matrix(22.9636 0 0 -24.6763 11818.4805 6451.6714)">
		<stop  offset="1.000000e-02" style="stop-color:#000000"/>
		<stop  offset="8.000000e-02" style="stop-color:#000000;stop-opacity:0.69"/>
		<stop  offset="0.21" style="stop-color:#000000;stop-opacity:0.32"/>
		<stop  offset="1" style="stop-color:#000000;stop-opacity:0"/>
	</linearGradient>
	<path id="路径_7_" class="st22" d="M28.6,17.2c-2.5,1.1-5.3,0.9-8,1.1c-0.8,0-1.6,0.2-2.4,0.4c-1.5,0.6-2.9,1.5-4.1,2.7
		c-0.2,0.1-0.3,0.3-0.3,0.5c0,0.2,0,0.4,0.1,0.6c0.6,1.3,1.3,2.5,2.1,3.6c0.9,1.4,2,2.8,2,4.5c-0.1,1.3-0.6,2.5-1.4,3.5l-0.2,0.3
		c-0.9,1.3-2,2.6-3.1,3.8c-0.8,0.9-0.3,3.5-2.3,2.9c-1.7-0.5-0.9-2.7-0.3-3.8l0.7-1.3l1.1-2.1c0.8-1.6,1.7-3.5,1-5.2
		c-0.5-1.2-1.6-1.9-2.7-2.5c-2-1.2-2.3-2.5-4.5-3.4c1-1,8.7-3.7,14-6c3.5,0.3,5.4-0.2,8.9-0.4C29.3,16.6,28.9,17.1,28.6,17.2z"/>
	<path id="路径_8_" class="st21" d="M15.7,11.2l0.3,0.2c0,0,0.1,0.1,0.1,0.1c0,0,0,0.1,0,0.1L16,12.7c-0.1,0.5-0.2,0.9-0.5,1.3
		c-0.1,0.2-1.1-0.5-1.2-0.6c-0.4-0.3-0.7-0.7-1-1.1c-0.1-0.2-0.2-0.4-0.3-0.6c-0.1-0.5,0-1.1,0.2-1.6c0.4-0.8,1-0.4,1.5,0.1
		C15,10.6,15.4,10.9,15.7,11.2L15.7,11.2z"/>
	<path id="路径_9_" class="st16" d="M9.7,40.7c0,0.1,0.1,0.2,0.1,0.2c0.8,1,1.7,1.7,2.7,2.2c0.1,0,0.1,0.1,0.2,0.1
		c0.1,0,0.2-0.2,0.2-0.4c0-0.2-0.1-0.3-0.1-0.5c-0.2-0.4-0.4-0.8-0.7-1.1c-0.2-0.2-0.4-0.6-0.4-1c0-0.2,0.1-0.4,0.1-0.5
		c0.2-0.8-0.9-0.9-1.3-0.8C10.1,39.3,9.8,40,9.7,40.7z"/>
	<path id="路径_10_" class="st18" d="M5.3,20.5c0,0-2.2,3,0.1,5.6c1.6,1.8,4,3.1,6.2,4.2c0.4,0.2,0.8,0.3,1.2,0.6
		c0.7,0.4,0.3,0.8-0.1,1.4c-1,1.5-2,3-2.9,4.4c-0.6,0.7-1,1.6-1.2,2.5l2.5,0.7c1.3-2.2,2.9-4.3,4.6-6.2c0.7-0.8,1.7-1.9,1.6-3
		c-0.2-1.1-0.7-2.1-1.4-2.9l-4.7-5.2L5.3,20.5z"/>
	<path id="路径_11_" class="st16" d="M16.9,4.6c0.1,0.2,0.3,0.4,0.3,0.7c0,0.3-0.2,0.6-0.4,0.9S16.6,7,16.4,7.4
		c0,0.1-0.1,0.2-0.2,0.2c-0.1,0-0.2,0-0.2,0c-0.3,0-0.6-0.1-0.9-0.2c-0.1,0-0.1,0-0.2,0c-0.1,0-0.1,0.1-0.1,0.1
		c-0.3,0.7-0.5,1.6-0.5,2.4c0,0.3,0,0.6-0.2,0.7c-0.1,0.1-0.2,0.1-0.3,0.1c-0.6,0-1-0.6-1.3-1.1c-0.2-0.5-0.4-1-0.6-1.6
		c0-0.2-0.1-0.3-0.1-0.5c0-0.2,0.1-0.4,0.2-0.5c0.3-0.6,0.5-1.2,0.7-1.9c0.2-0.9,0.4-1.7,0.8-2.5c0.2-0.2,0.4-0.4,0.6-0.5
		c0.3-0.1,0.6-0.1,0.9,0c0.6,0.1,1.1,0.4,1.5,1C16.8,3.4,16.8,4.3,16.9,4.6z"/>
	<path id="路径_12_" class="st21" d="M10.5,22.4C10,22.5,9.5,22.4,9,22.3c-0.7-0.1-1.5-0.2-2.3-0.1c-0.4,0.1-0.9,0.3-1.3,0.4
		c-0.7,0.2-1.4,0.1-2-0.3c0-0.1,0-0.2,0-0.3c0.1-0.9-0.3-2.1,0-3c1-3.4,1.9-5.9,3.8-8.9c0.6-0.8,2.8-1.9,3.8-2.4
		c0.2-0.1,0.4-0.2,0.7-0.2c0.3,0,0.5,0.1,0.8,0.2c0.8,0.4,1.1,1.1,1.5,1.9c0.5,0.8,0.8,1.6,0.9,2.5c0.1,1.1,0.5,2.2-0.1,3.3
		c-0.9,1.5-2.4,2.5-3.3,4.1c-0.2,0.2-0.2,0.5-0.2,0.8c0,0.4,0.3,0.7,0.3,1.1C11.4,21.9,11,22.3,10.5,22.4L10.5,22.4z"/>
	<path id="路径_13_" class="st16" d="M15.5,17.1c0.3,0.1,0.7,0.2,0.9,0.3c1.6,0.4,3.2,0.7,4.8,0.7c2.1,0.2,4.1,0.2,6.2,0.1
		c0.8-0.1,1.7-0.3,2.4-0.6c0.2-0.1,0.4-0.3,0.3-0.5C30.1,17,30,17,29.9,16.9c-0.8-0.3-1.7-0.5-2.6-0.5c0-0.3-0.1-0.6-0.4-0.6
		c-0.3,0-0.5,0.3-0.7,0.5C25.9,17,25,17,24.2,17c-5.9-0.8-8.3-2.7-9.1-3c-0.5-0.2,0,0.8-0.5,1.2s-1,0.8-0.3,1.3
		C14.7,16.8,15.1,17,15.5,17.1z"/>
	<path id="路径_14_" class="st21" d="M13.5,10.3c0,0,2.4,3.8,2.7,4c0.3,0.2-2.1,3-2.1,3s-2.9-3.5-3.2-5.3S12,8.9,13.5,10.3z"/>
	
		<linearGradient id="路径_20_" gradientUnits="userSpaceOnUse" x1="-506.6934" y1="257.7374" x2="-505.6934" y2="257.7374" gradientTransform="matrix(16.195 0 0 -17.2747 8205.9033 4460.9678)">
		<stop  offset="0" style="stop-color:#0048AC"/>
		<stop  offset="1" style="stop-color:#6085FF"/>
	</linearGradient>
	<path id="路径_15_" class="st23" d="M16.1,3.1c-0.2,0.3-0.5,0.5-0.9,0.6c-0.3,0.1-0.6,0.1-1,0.1c0,0-0.1,0-0.1,0c0,0,0,0.1,0,0.1
		c0,0.5-0.3,1-0.6,1.3c0,0-0.1,0.1-0.1,0.1c0,0.1,0,0.2,0,0.2c0,0.3,0,0.5,0,0.8c0,0.3-0.2,0.5-0.3,0.7c0,0-0.1,0.1-0.1,0.1
		c0,0,0,0.1,0,0.1C13,7.6,13,7.9,12.9,8.2c-0.5-0.4-1.1-0.5-1.7-0.4c-0.2,0-0.3,0.1-0.5,0.2c-0.9,0.9-1.6,2-2.5,3
		c-0.4,0.4-0.8,0.7-1.2,1.1c-0.5,0.7-1,1.5-1.3,2.3c-0.2,0.6-0.5,1.3-0.9,1.8c-0.4,0.6-1,1-1.6,1.1c-0.6,0.1-1.2-0.2-1.7-0.6
		c-0.8-0.8-1.1-2-0.8-3.1c0.1-0.2,0.1-0.4,0.1-0.5c0-0.1-0.1-0.2-0.2-0.3c-0.8-0.9-0.8-2.3,0-3.2C1,9.2,2.1,8.8,2.1,8.1
		c0.1-0.7-0.5-1.4-0.3-2.2C1.9,5.7,2,5.5,2.2,5.3c0.3-0.5,0.7-0.9,1.2-1.1C3.9,4,4.4,3.9,5,3.9c1.7-0.1,3.4-0.7,4.5-2
		c0.2-0.3,0.5-0.7,0.8-1c0.3-0.3,0.7-0.5,1.2-0.6c1-0.4,2.1-0.4,3.2,0c0.7,0.3,1.3,1,1.5,1.7C16.2,2.3,16.2,2.7,16.1,3.1L16.1,3.1z"
		/>
	<path id="路径_16_" class="st21" d="M9.2,39.9c-0.3,0.2-0.5,0.4-0.6,0.7c0,0.1,0,0.2,0,0.3c0,0.1,0.1,0.2,0.2,0.2
		c0.9,0.8,2,1.4,3.1,1.9c0.1,0.1,0.3,0.1,0.5,0.1c0.2,0,0.3,0,0.4-0.2c0.1-0.1,0.1-0.2,0.1-0.3c0-0.4-0.1-0.7-0.4-1
		s-0.7-0.4-1.1-0.4c-0.1,0-0.3,0-0.4,0c-0.1,0-0.3-0.1-0.4-0.2c-0.3-0.2-0.6-0.4-0.9-0.6C9.6,40.4,9.4,40.2,9.2,39.9z"/>
</g>
</svg>
