<?xml version="1.0" encoding="UTF-8"?>
<svg width="24px" height="24px" viewBox="0 0 24 24" version="1.1" xmlns="http://www.w3.org/2000/svg" xmlns:xlink="http://www.w3.org/1999/xlink">
    <title>Logo/环境选择/Container</title>
    <g id="Logo/环境选择/Container" stroke="none" stroke-width="1" fill="none" fill-rule="evenodd">
        <path d="M12.8677675,1.41789479 L19.7323788,4.72371739 C20.2807529,4.98780041 20.67903,5.4872241 20.8144672,6.08061325 L22.5098862,13.5087292 C22.6453234,14.1021184 22.5031799,14.7248895 22.1236933,15.2007507 L17.3732349,21.1576372 C16.9937482,21.6334983 16.4182212,21.9106575 15.8095719,21.9106575 L8.19042811,21.9106575 C7.58177884,21.9106575 7.00625175,21.6334983 6.62676514,21.1576372 L1.87630669,15.2007507 C1.49682008,14.7248895 1.35467663,14.1021184 1.49011383,13.5087292 L3.18553282,6.08061325 C3.32097003,5.4872241 3.71924713,4.98780041 4.26762117,4.72371739 L11.1322325,1.41789479 C11.6806066,1.15381177 12.3193934,1.15381177 12.8677675,1.41789479 Z" id="多边形" fill="#326DE6"></path>
        <g id="容器" transform="translate(4.000000, 6.000000)" fill="#FFFFFF">
            <path d="M16.7428402,4.20394992 C16.1765155,3.82571918 15.490705,3.67744617 14.8216146,3.78857876 C14.6289976,3.06139856 14.1859529,2.42832104 13.5728087,2.00412924 L13.2129513,1.76944951 L12.9558031,2.1263441 C12.3114246,3.03580356 12.2136813,4.231641 12.7016,5.23638369 C12.4371377,5.38231409 12.1442248,5.46730298 11.8437079,5.4853017 L11.5555148,5.4853017 L11.5555148,3.62737561 L9.58699416,3.62737561 L9.58699416,0 L7.21204887,0 L7.21204887,1.8136878 L3.31785606,1.8136878 L3.31785606,3.62662561 L1.37075965,3.62662561 L1.37075965,5.48531342 L0.0975728679,5.48531342 L0.0377236878,5.91117286 C-0.130207991,7.38444469 0.266645909,8.86682406 1.14612311,10.0514079 C2.18729327,11.3417597 3.85137073,11.9962989 6.09256199,11.9962989 C8.67263425,12.0722335 11.1516183,10.9764885 12.8538331,9.00772416 C13.5341409,8.21873775 14.0800584,7.32019489 14.4691373,6.34904403 C16.6371745,6.30930574 16.9320085,4.77452423 16.9438351,4.70853594 L17,4.38689136 L16.7457969,4.20396164 L16.7428402,4.20394992 Z M7.89261097,3.61988732 L7.89261097,2.54096527 L8.9056929,2.54096527 L8.9056929,3.61988732 L7.89261097,3.61988732 Z M3.99841816,5.43207513 L3.99841816,4.35315307 L5.0100333,4.35315307 L5.0100333,5.43207513 L3.99841816,5.43207513 L3.99841816,5.43207513 Z M5.94551456,5.43207513 L5.94551456,4.35315307 L6.95711816,4.35315307 L6.95711816,5.43207513 L5.94551456,5.43207513 L5.94551456,5.43207513 Z M7.89261097,5.43207513 L7.89261097,4.35315307 L8.9056929,4.35315307 L8.9056929,5.43207513 L7.89261097,5.43207513 Z M9.86040397,4.35315307 L10.8712569,4.35315307 L10.8712569,5.43207513 L9.86039242,5.43207513 L9.86039242,4.35315307 L9.86040397,4.35315307 Z M7.89259942,0.728027465 L8.90568135,0.728027465 L8.90568135,1.8061878 L7.89259942,1.8061878 L7.89259942,0.728027465 Z M5.94551456,2.54096527 L6.95711816,2.54096527 L6.95711816,3.61988732 L5.94625373,3.61988732 L5.94625373,2.54096527 L5.94551456,2.54096527 Z M3.99841816,2.54096527 L5.0100333,2.54096527 L5.0100333,3.61988732 L3.99841816,3.61988732 L3.99841816,2.54096527 Z M2.0513333,4.35316479 L3.06219773,4.35316479 L3.06219773,5.43208684 L2.0513333,5.43208684 L2.0513333,4.35316479 Z M6.08886617,10.9968768 C5.16213421,11.0213523 4.23976756,10.859806 3.37474858,10.5215174 C4.00304597,10.3892498 4.59724496,10.1254602 5.11938337,9.74700163 C5.31251652,9.57721765 5.35142642,9.28835411 5.21027743,9.07221245 C5.07400586,8.85734281 4.79202718,8.79495639 4.57996694,8.9327593 C3.84178252,9.42997995 2.97111615,9.68563725 2.08531174,9.66527505 C2.00695105,9.58572507 1.93294674,9.50187662 1.86363186,9.41410704 C1.23626546,8.57496632 0.911775405,7.54275509 0.944400654,6.4900089 L11.8459138,6.4900089 C12.5080008,6.46344611 13.140946,6.20666567 13.6385711,5.76274315 L13.6962028,5.70800486 C12.5499579,8.95032683 9.48569171,11.0830407 6.09182283,11.0006151 L6.08886617,10.9968768 Z M14.1669117,5.34361027 L13.8765126,5.32937198 L13.7013885,5.08119225 C13.3371942,4.52293419 13.2451556,3.82613975 13.4516204,3.19027788 C13.7601627,3.50427857 13.9361367,3.92780529 13.9422751,4.37116479 L13.9230684,5.08044225 L14.556324,4.86151253 C14.9740512,4.73565248 15.4178644,4.728906 15.8391199,4.84201253 C15.38937,5.26476848 14.7709135,5.45028148 14.1669117,5.34361027 L14.1669117,5.34361027 Z M6.28764352,7.37472779 C6.61652075,7.35879465 6.92184214,7.54757308 7.05865974,7.85144261 C7.19547734,8.15531214 7.13623977,8.51308162 6.90906941,8.75490396 C6.68189904,8.9967263 6.33254189,9.07390498 6.02685138,8.94980029 C5.72116087,8.82569559 5.52069485,8.52529886 5.52062234,8.19122012 C5.51071021,7.75103263 5.85383929,7.38577248 6.28764352,7.37472779 L6.28764352,7.37472779 Z M6.28764352,8.37566155 C6.36193904,8.37934866 6.43095271,8.33673753 6.46186795,8.26809013 C6.49278319,8.19944272 6.47936193,8.11861069 6.4279861,8.06403036 C6.37661026,8.00945002 6.29764645,7.99213459 6.22864263,8.02031768 C6.15963881,8.04850078 6.11451854,8.11649564 6.11473691,8.19197012 C6.11354706,8.23962391 6.13111957,8.28579473 6.16356687,8.32026819 C6.19601417,8.35474165 6.24066166,8.37467614 6.28763197,8.37566155 L6.28764352,8.37566155 Z" id="形状"></path>
        </g>
    </g>
</svg>