<?xml version="1.0" encoding="UTF-8"?>
<svg width="24px" height="24px" viewBox="0 0 24 24" version="1.1" xmlns="http://www.w3.org/2000/svg" xmlns:xlink="http://www.w3.org/1999/xlink">
    <title>Logo/环境选择/Node</title>
    <g id="Logo/环境选择/Node" stroke="none" stroke-width="1" fill="none" fill-rule="evenodd">
        <path d="M12.8677675,1.41789479 L19.7323788,4.72371739 C20.2807529,4.98780041 20.67903,5.4872241 20.8144672,6.08061325 L22.5098862,13.5087292 C22.6453234,14.1021184 22.5031799,14.7248895 22.1236933,15.2007507 L17.3732349,21.1576372 C16.9937482,21.6334983 16.4182212,21.9106575 15.8095719,21.9106575 L8.19042811,21.9106575 C7.58177884,21.9106575 7.00625175,21.6334983 6.62676514,21.1576372 L1.87630669,15.2007507 C1.49682008,14.7248895 1.35467663,14.1021184 1.49011383,13.5087292 L3.18553282,6.08061325 C3.32097003,5.4872241 3.71924713,4.98780041 4.26762117,4.72371739 L11.1322325,1.41789479 C11.6806066,1.15381177 12.3193934,1.15381177 12.8677675,1.41789479 Z" id="多边形" fill="#326DE6"></path>
        <g id="node-tree-solid" transform="translate(5.000000, 4.000000)">
            <rect id="矩形" fill="#000000" fill-rule="nonzero" opacity="0" x="0" y="0" width="14" height="14"></rect>
            <path d="M4.73850085,7.34834794 C4.92667283,7.34834794 5.07921637,7.1913608 5.07921637,6.99770735 C5.07921637,6.8040539 4.92667283,6.64706676 4.73850085,6.64706676 L2.87393526,6.64706676 L2.87393526,4.11368847 C3.5706206,3.95027466 4.06525121,3.31324838 4.06643952,2.57788267 C4.06643952,1.708294 3.37819421,1 2.53321976,1 C1.68824532,1 1,1.708294 1,2.57788267 C1.00118832,3.31324838 1.49581892,3.95027466 2.19250426,4.11368847 L2.19250426,13.6493594 C2.19250426,13.8430129 2.34504779,14 2.53321976,14 C2.72139174,14 2.87393526,13.8430129 2.87393526,13.6493594 L2.87393526,11.7164531 C2.90459966,11.7190829 2.93356048,11.7234659 2.96592845,11.7234659 L4.73850085,11.7234659 C4.86022678,11.723466 4.97270618,11.6566342 5.03356915,11.5481457 C5.09443212,11.4396571 5.09443212,11.3059936 5.03356915,11.1975051 C4.97270618,11.0890165 4.86022678,11.0221848 4.73850085,11.0221848 L2.96592845,11.0221848 C2.91993186,11.0221848 2.89267462,11.0160486 2.88500852,11.0186784 C2.87540382,10.9803471 2.87138495,10.9407603 2.87308348,10.9012138 L2.87308348,7.34747134 L4.73850085,7.34747134 L4.73850085,7.34834794 Z M12.5741056,5.68192852 L6.10051107,5.68192852 C5.8652961,5.68192852 5.6746167,5.87816245 5.6746167,6.12022927 L5.6746167,7.87343223 C5.6746167,8.11549905 5.8652961,8.31173297 6.10051107,8.31173297 L12.5741056,8.31173297 C12.8093206,8.31173297 13,8.11549905 13,7.87343223 L13,6.12022927 C13,5.87816245 12.8093206,5.68192852 12.5741056,5.68192852 Z M12.5741056,10.0587997 L6.10051107,10.0587997 C5.8652961,10.0587997 5.6746167,10.2550337 5.6746167,10.4971005 L5.6746167,12.2503034 C5.6746167,12.4923703 5.8652961,12.6886042 6.10051107,12.6886042 L12.5741056,12.6886042 C12.8093206,12.6886042 13,12.4923703 13,12.2503034 L13,10.4971005 C13,10.2550337 12.8093206,10.0587997 12.5741056,10.0587997 Z" id="形状" fill="#FFFFFF"></path>
        </g>
    </g>
</svg>