<?xml version="1.0" encoding="UTF-8"?>
<svg width="24px" height="24px" viewBox="0 0 24 24" version="1.1" xmlns="http://www.w3.org/2000/svg" xmlns:xlink="http://www.w3.org/1999/xlink">
    <title>Logo/环境选择/标准输出</title>
    <g id="Logo/环境选择/标准输出" stroke="none" stroke-width="1" fill="none" fill-rule="evenodd">
        <path d="M12.8677675,1.41789479 L19.7323788,4.72371739 C20.2807529,4.98780041 20.67903,5.4872241 20.8144672,6.08061325 L22.5098862,13.5087292 C22.6453234,14.1021184 22.5031799,14.7248895 22.1236933,15.2007507 L17.3732349,21.1576372 C16.9937482,21.6334983 16.4182212,21.9106575 15.8095719,21.9106575 L8.19042811,21.9106575 C7.58177884,21.9106575 7.00625175,21.6334983 6.62676514,21.1576372 L1.87630669,15.2007507 C1.49682008,14.7248895 1.35467663,14.1021184 1.49011383,13.5087292 L3.18553282,6.08061325 C3.32097003,5.4872241 3.71924713,4.98780041 4.26762117,4.72371739 L11.1322325,1.41789479 C11.6806066,1.15381177 12.3193934,1.15381177 12.8677675,1.41789479 Z" id="多边形" fill="#326DE6"></path>
        <text id="I/O" font-family="DINAlternate-Bold, DIN Alternate" font-size="14" font-weight="bold" letter-spacing="-0.816666667" fill="#FFFFFF">
            <tspan x="5" y="17">I/O</tspan>
        </text>
    </g>
</svg>