<svg viewBox="0 0 32 32" version="1.1" xmlns="http://www.w3.org/2000/svg"><path fill="#96a2b9" fill-rule="evenodd" d="M24.08,14.56a1.14,1.14,0,0,1,0,2.27H21.19a1.14,1.14,0,0,1,0-2.27ZM22.6,11.14a4.51,4.51,0,1,0,4.5,4.51A4.51,4.51,0,0,0,22.6,11.14Zm-13.52,0H8.86A4.5,4.5,0,0,0,6,12.34l-.17.17A4.54,4.54,0,0,0,9.1,20.23h.23A4.5,4.5,0,0,0,12.16,19l.17-.17a4.52,4.52,0,0,0,.11-6.24h0l-.16-.16A4.54,4.54,0,0,0,9.08,11.15Zm0-2.26h.29a6.82,6.82,0,0,1,4.72,2.2l.17.2a6.77,6.77,0,0,1,1.59,3.76,6.74,6.74,0,1,1,0,1.24v.17a6.82,6.82,0,0,1-2.17,4.25l-.19.17a6.77,6.77,0,0,1-4.23,1.61H9a6.8,6.8,0,0,1-5-2.2l-.17-.2A6.8,6.8,0,0,1,9.1,8.89Zm6,11.62,1.5,1.64L15,23.65,13.47,22l.22-.14a4.77,4.77,0,0,0,.63-.48A6.62,6.62,0,0,0,15.11,20.51Z"/></svg>